<?xml version="1.0" encoding="UTF-8"?>
<svg xmlns="http://www.w3.org/2000/svg" xmlns:xlink="http://www.w3.org/1999/xlink" width="256pt" height="256pt" viewBox="0 0 256 256" version="1.1">
<g id="surface1">
<path style=" stroke:none;fill-rule:nonzero;fill:rgb(43.921569%,43.921569%,43.921569%);fill-opacity:1;" d="M 39.589844 129 C 39.613281 129.933594 39.707031 130.867188 39.878906 131.785156 C 40.207031 133.625 40.820312 135.398438 41.695312 137.050781 C 43.417969 140.316406 46.054688 143.011719 49.28125 144.808594 C 52.019531 146.34375 55.089844 147.1875 58.230469 147.269531 L 64.265625 147.355469 C 70.101562 147.484375 75.695312 147.535156 81.566406 147.40625 L 83.304688 147.40625 C 85.378906 147.496094 87.449219 147.15625 89.386719 146.40625 C 90.832031 145.832031 92.210938 145.109375 93.5 144.238281 C 94.175781 143.835938 94.753906 143.289062 95.183594 142.628906 C 95.359375 142.378906 94.433594 142.980469 94.804688 142.574219 C 95.804688 141.660156 98.15625 138.449219 97.378906 139.074219 C 96.453125 139.863281 97.976562 137.945312 98.71875 136.074219 C 97.761719 137.875 96.484375 139.480469 94.949219 140.820312 C 97.121094 138.585938 97.175781 137.820312 97.5 137.148438 C 98.230469 135.5 98.816406 133.789062 99.25 132.035156 C 99.042969 132.832031 98.777344 133.613281 98.453125 134.371094 C 98.851562 132.464844 98.875 130.503906 98.519531 128.589844 C 98.523438 132.464844 96.996094 136.179688 94.273438 138.933594 C 94.179688 138.835938 94.664062 138.070312 93.855469 138.765625 C 92.421875 139.980469 90.828125 140.988281 89.121094 141.765625 C 87.164062 142.613281 85.054688 143.050781 82.921875 143.050781 C 80.976562 143.105469 79.035156 143.066406 77.09375 142.925781 C 75.460938 142.78125 73.816406 142.726562 72.175781 142.761719 L 69.003906 142.726562 L 69.003906 142.648438 L 78.539062 142.535156 L 72.539062 142.480469 C 67.753906 142.480469 63.039062 142.515625 58.226562 142.429688 C 56.152344 142.34375 54.132812 141.753906 52.339844 140.703125 C 51 139.839844 50.511719 139.304688 51.621094 139.828125 C 53.664062 140.804688 55.914062 141.277344 58.179688 141.210938 L 60.246094 141.210938 L 59.980469 141.375 L 64.519531 141.203125 L 61.773438 141.089844 C 61.683594 140.964844 61.503906 140.871094 61.578125 140.78125 C 61.785156 140.523438 60.699219 140.246094 64.003906 140.039062 C 65.351562 139.953125 67.503906 139.886719 67.824219 139.78125 C 68.289062 139.640625 68.980469 139.644531 70.601562 139.636719 C 72.101562 139.636719 74.21875 139.566406 74.765625 139.484375 C 75.453125 139.386719 74.828125 139.238281 74.765625 139.074219 L 76.003906 139.015625 L 70.40625 138.984375 L 69.96875 139.171875 L 62.839844 139.039062 L 59.269531 139.066406 C 58.09375 139.117188 56.914062 138.996094 55.769531 138.703125 C 56.269531 138.753906 56.464844 138.804688 56.738281 138.804688 C 55.753906 138.601562 54.804688 138.265625 53.910156 137.804688 C 53.667969 137.5 53.410156 137.207031 53.128906 136.933594 C 52.875 136.746094 51.90625 135.875 51.515625 135.503906 C 50.035156 134.117188 49.054688 132.277344 48.730469 130.273438 C 48.59375 129.21875 48.554688 128.148438 48.621094 127.085938 C 48.621094 125.894531 48.621094 124.703125 48.621094 123.5 C 48.621094 122.296875 48.621094 121 48.621094 120 L 48.46875 111.835938 L 48.46875 109.738281 C 48.464844 109.144531 48.507812 108.550781 48.59375 107.964844 C 48.777344 106.816406 49.152344 105.707031 49.710938 104.683594 C 51.164062 102.113281 53.625 100.265625 56.5 99.589844 C 57.214844 99.429688 57.941406 99.335938 58.675781 99.304688 L 61.175781 99.238281 L 66.046875 99.101562 C 68.464844 99.019531 71.941406 98.984375 71.304688 98.675781 C 70.960938 98.503906 71.851562 98.5 74.960938 98.546875 L 81.886719 98.546875 C 83.324219 98.46875 84.769531 98.601562 86.171875 98.941406 C 88.925781 99.65625 91.308594 101.378906 92.855469 103.769531 C 93.292969 104.46875 93.628906 105.222656 93.855469 106.015625 L 93.691406 105.703125 C 94.199219 106.976562 94.460938 108.335938 94.464844 109.703125 L 94.488281 114.160156 C 94.488281 117.160156 94.523438 120.160156 94.546875 123.160156 C 94.800781 122.53125 94.941406 124.160156 94.960938 126.660156 C 95.269531 127.214844 95.539062 127.785156 95.773438 128.375 C 96.125 129.375 96.273438 127.375 96.183594 122.195312 C 96.15625 118.953125 96.125 115.625 96.09375 112.335938 C 96.09375 110.285156 96.171875 107.703125 95.460938 105.921875 C 94.496094 103.269531 92.679688 101.011719 90.300781 99.5 C 87.796875 97.960938 84.871094 97.25 81.941406 97.46875 L 78.113281 97.546875 L 72.179688 97.71875 C 72.714844 97.34375 71.53125 97.25 67.375 97.261719 L 61.078125 97.296875 C 59.398438 97.296875 57.628906 97.191406 55.894531 97.605469 C 54.164062 97.988281 52.535156 98.726562 51.105469 99.769531 C 48.1875 101.882812 46.355469 105.175781 46.105469 108.769531 C 46.105469 108.816406 46.070312 108.835938 46.046875 108.875 C 46.035156 108.511719 46.0625 108.148438 46.125 107.789062 C 46.820312 103.246094 49.945312 99.445312 54.269531 97.890625 C 56.359375 97.039062 58.730469 97.023438 60.804688 97.058594 L 67.214844 97.03125 L 69.273438 97.105469 L 75.449219 97.105469 C 75.269531 97.011719 75.390625 96.90625 74.851562 96.820312 L 70.023438 96.148438 C 73.21875 95.941406 73.179688 95.945312 75.371094 96.179688 C 75.683594 96.214844 76.511719 96.234375 77.148438 96.246094 C 78.796875 96.246094 81.070312 96.246094 83.148438 96.15625 C 84.917969 96.121094 86.675781 96.351562 88.375 96.839844 C 89.042969 97.003906 89.691406 97.25 90.296875 97.578125 C 93.445312 99.320312 95.796875 102.222656 96.84375 105.664062 C 97.253906 107.070312 97.464844 108.527344 97.480469 109.988281 C 97.515625 111.125 97.570312 112.109375 97.636719 112.878906 C 97.765625 114.421875 97.945312 115.09375 98.136719 114.378906 C 98.390625 113.378906 98.925781 116.675781 98.953125 119.480469 C 99.015625 124.859375 99.265625 126.003906 99.503906 126.335938 C 99.59375 126.460938 99.710938 125.800781 99.773438 126.386719 C 100.054688 128.941406 100.273438 127.53125 100.425781 124.789062 L 100.648438 127.09375 L 100.828125 123.160156 C 100.859375 121.730469 100.796875 119.476562 100.828125 118.585938 C 100.953125 116.585938 101.003906 114.371094 101.023438 112.085938 L 101.023438 109.425781 L 100.960938 108.136719 C 100.8125 106.417969 100.410156 104.734375 99.765625 103.136719 C 98.027344 98.90625 94.699219 95.53125 90.5 93.730469 C 90.804688 93.660156 92.160156 94.109375 92 93.875 C 91.941406 93.734375 91.5 93.429688 90.304688 92.835938 C 88.269531 91.929688 86.082031 91.421875 83.855469 91.335938 L 85.140625 91.011719 C 84.558594 90.949219 83.976562 90.921875 83.386719 90.890625 L 82.148438 90.859375 L 79.925781 90.820312 C 78.488281 90.789062 77.191406 90.761719 76.203125 90.699219 C 73.421875 90.535156 70.570312 90.523438 67.886719 90.605469 C 66.988281 90.648438 66.097656 90.761719 65.21875 90.949219 L 65.476562 91.046875 L 57.515625 90.921875 C 53.460938 91.019531 49.554688 92.453125 46.398438 95 C 42.8125 97.882812 40.453125 102.019531 39.800781 106.574219 C 39.679688 107.355469 39.609375 108.144531 39.59375 108.933594 L 39.59375 110 C 39.59375 110.273438 39.59375 110.546875 39.59375 110.808594 C 39.59375 116.246094 39.59375 121.691406 39.59375 127.105469 Z M 69.089844 145.433594 L 83.089844 145.589844 L 82.800781 145.691406 L 80.511719 145.640625 L 76.699219 145.679688 L 70.289062 145.679688 C 69.660156 145.652344 69.03125 145.589844 68.40625 145.496094 Z M 46 114.570312 L 46.210938 119.40625 C 46.210938 120.109375 46.179688 121.28125 46.140625 123.320312 L 46.058594 120.289062 L 46.058594 120.386719 C 46.058594 121.660156 46.058594 122.941406 46.058594 124.445312 C 45.863281 121.15625 45.84375 117.859375 46 114.570312 Z M 53.359375 128.671875 C 53.246094 129.140625 53.21875 129.625 53.28125 130.105469 C 53.421875 130.589844 53.640625 131.050781 53.929688 131.464844 C 53.996094 131.421875 54.160156 131.515625 54.101562 131.300781 C 53.949219 130.578125 53.984375 130.800781 54.925781 131.839844 C 55.605469 132.515625 56.464844 132.984375 57.398438 133.191406 C 57.90625 133.3125 58.425781 133.378906 58.945312 133.386719 C 60.023438 133.386719 61.085938 133.441406 62.101562 133.5 C 62.914062 133.550781 63.855469 133.644531 63.695312 133.703125 C 62.726562 134.070312 61.53125 134.429688 60.238281 134.789062 C 59.746094 134.890625 59.242188 134.941406 58.738281 134.941406 C 58.175781 134.960938 57.613281 134.894531 57.070312 134.746094 C 55.425781 134.332031 53.996094 133.3125 53.070312 131.890625 C 52.636719 131.214844 52.34375 130.464844 52.199219 129.675781 C 52.128906 129.25 52.09375 128.820312 52.09375 128.390625 L 52.09375 126.085938 C 52.09375 120.511719 52.550781 115.171875 52.910156 117.355469 C 52.945312 117.570312 52.976562 118.148438 52.996094 118.671875 Z M 62.25 101.550781 C 61.640625 101.519531 59.046875 101.550781 58.539062 101.613281 C 57.617188 101.71875 56.738281 102.042969 55.96875 102.566406 C 55.164062 103.046875 54.386719 103.570312 53.636719 104.136719 C 52.191406 105.136719 51.363281 107.425781 51.011719 107.769531 C 50.710938 108 50.386719 109.324219 50.28125 111.113281 C 50.226562 111.578125 50.144531 111.835938 50.085938 111.613281 C 49.960938 111.148438 49.839844 110.316406 49.769531 109.929688 C 49.605469 106.367188 51.605469 103.058594 54.835938 101.550781 C 55.804688 101.074219 56.847656 100.761719 57.921875 100.628906 L 58.765625 100.566406 L 62.40625 100.566406 C 64.90625 100.613281 67.875 100.566406 70.226562 100.566406 L 72.226562 101.109375 L 74.484375 101.609375 C 70.953125 101.601562 66.589844 101.800781 62.25 101.550781 Z M 83.5 134.46875 C 83.65625 134.398438 83.804688 134.3125 83.945312 134.214844 C 83.796875 134.253906 83.644531 134.28125 83.488281 134.296875 L 69.113281 133.394531 L 69.613281 133.304688 L 83.046875 133.304688 C 84.308594 133.316406 85.550781 132.949219 86.605469 132.25 C 87.535156 131.605469 88.058594 131.011719 88.335938 130.855469 C 88.609375 130.699219 88.769531 131.03125 88.273438 131.984375 C 88.039062 132.402344 87.726562 132.773438 87.355469 133.078125 C 86.261719 133.960938 84.90625 134.453125 83.5 134.46875 Z M 64.265625 220.65625 C 70.101562 220.785156 75.695312 220.835938 81.566406 220.703125 L 83.304688 220.703125 C 85.378906 220.796875 87.449219 220.457031 89.386719 219.703125 C 90.832031 219.132812 92.210938 218.40625 93.5 217.539062 C 94.175781 217.136719 94.753906 216.585938 95.183594 215.929688 C 95.359375 215.679688 94.433594 216.28125 94.804688 215.875 C 95.804688 214.960938 98.15625 211.75 97.378906 212.375 C 96.453125 213.164062 97.976562 211.246094 98.71875 209.375 C 97.761719 211.171875 96.484375 212.78125 94.949219 214.121094 C 97.121094 211.886719 97.175781 211.121094 97.5 210.449219 C 98.230469 208.800781 98.816406 207.085938 99.25 205.335938 C 99.042969 206.132812 98.777344 206.914062 98.453125 207.671875 C 98.851562 205.765625 98.875 203.800781 98.519531 201.890625 C 98.523438 205.761719 96.996094 209.480469 94.273438 212.234375 C 94.179688 212.136719 94.664062 211.371094 93.855469 212.066406 C 92.421875 213.277344 90.828125 214.289062 89.121094 215.066406 C 87.164062 215.914062 85.054688 216.351562 82.921875 216.351562 C 80.976562 216.40625 79.035156 216.363281 77.09375 216.226562 C 75.460938 216.082031 73.816406 216.027344 72.175781 216.058594 L 69 216 L 69 215.925781 L 78.535156 215.808594 L 72.535156 215.753906 C 67.75 215.753906 63.035156 215.789062 58.21875 215.703125 C 56.15625 215.621094 54.144531 215.039062 52.359375 214 C 51.019531 213.136719 50.53125 212.601562 51.640625 213.125 C 53.6875 214.097656 55.933594 214.570312 58.199219 214.5 L 60.265625 214.5 L 60 214.664062 L 64.539062 214.496094 L 61.796875 214.378906 C 61.703125 214.253906 61.523438 214.160156 61.601562 214.070312 C 61.804688 213.816406 60.71875 213.535156 64.023438 213.328125 C 65.371094 213.246094 67.523438 213.175781 67.84375 213.070312 C 68.308594 212.929688 69 212.933594 70.621094 212.925781 C 72.121094 212.925781 74.238281 212.855469 74.785156 212.773438 C 75.476562 212.675781 74.851562 212.53125 74.785156 212.363281 L 76.023438 212.304688 L 70.425781 212.273438 L 69.988281 212.460938 L 62.859375 212.328125 L 59.289062 212.355469 C 58.113281 212.410156 56.933594 212.285156 55.789062 211.996094 C 56.289062 212.046875 56.484375 212.09375 56.761719 212.09375 C 55.777344 211.890625 54.824219 211.554688 53.929688 211.09375 C 53.6875 210.789062 53.429688 210.496094 53.148438 210.226562 C 52.894531 210.035156 51.925781 209.164062 51.535156 208.796875 C 50.054688 207.40625 49.074219 205.566406 48.75 203.566406 C 48.613281 202.507812 48.578125 201.4375 48.640625 200.375 C 48.640625 199.183594 48.640625 197.996094 48.640625 196.789062 C 48.640625 195.585938 48.640625 194.289062 48.640625 193.289062 L 48.488281 185.125 L 48.488281 183.03125 C 48.484375 182.4375 48.527344 181.84375 48.613281 181.253906 C 48.78125 180.117188 49.144531 179.015625 49.679688 178 C 51.132812 175.410156 53.609375 173.546875 56.5 172.871094 C 57.214844 172.710938 57.941406 172.617188 58.675781 172.585938 L 61.175781 172.519531 L 66.046875 172.378906 C 68.464844 172.300781 71.941406 172.265625 71.304688 171.953125 C 70.960938 171.785156 71.851562 171.78125 74.960938 171.824219 L 81.886719 171.824219 C 83.324219 171.75 84.769531 171.882812 86.171875 172.21875 C 88.925781 172.9375 91.308594 174.660156 92.855469 177.050781 C 93.292969 177.746094 93.628906 178.503906 93.855469 179.296875 L 93.691406 178.984375 C 94.199219 180.257812 94.460938 181.613281 94.464844 182.984375 L 94.488281 187.441406 C 94.488281 190.441406 94.523438 193.441406 94.546875 196.441406 C 94.800781 195.808594 94.941406 197.441406 94.960938 199.941406 C 95.269531 200.492188 95.539062 201.066406 95.773438 201.65625 C 96.125 202.65625 96.273438 200.65625 96.183594 195.476562 C 96.15625 192.234375 96.125 188.90625 96.09375 185.613281 C 96.09375 183.566406 96.171875 180.984375 95.460938 179.199219 C 94.496094 176.5625 92.691406 174.316406 90.324219 172.804688 C 87.820312 171.265625 84.894531 170.554688 81.964844 170.773438 L 78.140625 170.851562 L 72.203125 171.023438 C 72.738281 170.648438 71.554688 170.554688 67.398438 170.566406 L 61.105469 170.601562 C 59.425781 170.601562 57.65625 170.496094 55.921875 170.910156 C 54.191406 171.292969 52.558594 172.03125 51.128906 173.074219 C 48.210938 175.1875 46.382812 178.484375 46.128906 182.074219 C 46.128906 182.121094 46.09375 182.140625 46.070312 182.179688 C 46.0625 181.816406 46.089844 181.453125 46.148438 181.09375 C 46.84375 176.550781 49.96875 172.753906 54.296875 171.195312 C 56.386719 170.34375 58.753906 170.328125 60.828125 170.363281 L 67.238281 170.335938 L 69.300781 170.410156 L 75.449219 170.410156 C 75.269531 170.316406 75.390625 170.210938 74.851562 170.125 L 70.023438 169.453125 C 73.21875 169.246094 73.179688 169.25 75.371094 169.484375 C 75.683594 169.519531 76.511719 169.539062 77.148438 169.550781 C 78.796875 169.550781 81.070312 169.550781 83.148438 169.460938 C 84.917969 169.425781 86.675781 169.65625 88.375 170.144531 C 89.042969 170.308594 89.691406 170.554688 90.296875 170.886719 C 93.445312 172.625 95.796875 175.527344 96.84375 178.96875 C 97.253906 180.375 97.464844 181.832031 97.480469 183.296875 C 97.515625 184.429688 97.570312 185.414062 97.636719 186.183594 C 97.765625 187.726562 97.945312 188.398438 98.136719 187.683594 C 98.390625 186.683594 98.925781 189.980469 98.953125 192.785156 C 99.015625 198.164062 99.265625 199.308594 99.503906 199.640625 C 99.59375 199.765625 99.710938 199.105469 99.773438 199.691406 C 100.054688 202.246094 100.273438 200.835938 100.425781 198.09375 L 100.648438 200.398438 L 100.828125 196.464844 C 100.859375 195.035156 100.796875 192.78125 100.828125 191.890625 C 100.953125 189.890625 101.003906 187.675781 101.023438 185.390625 L 101.023438 182.730469 L 100.960938 181.441406 C 100.8125 179.722656 100.410156 178.039062 99.765625 176.441406 C 98.035156 172.199219 94.707031 168.808594 90.5 167 C 90.804688 166.929688 92.160156 167.378906 92 167.144531 C 91.941406 167.003906 91.5 166.699219 90.304688 166.105469 C 88.269531 165.199219 86.082031 164.691406 83.855469 164.605469 L 85.140625 164.28125 C 84.558594 164.21875 83.976562 164.191406 83.386719 164.160156 L 82.148438 164.128906 L 79.925781 164.089844 C 78.488281 164.058594 77.191406 164.03125 76.203125 163.96875 C 73.421875 163.804688 70.570312 163.796875 67.886719 163.875 C 66.988281 163.917969 66.097656 164.035156 65.21875 164.21875 L 65.476562 164.316406 L 57.515625 164.191406 C 53.445312 164.28125 49.523438 165.714844 46.355469 168.269531 C 42.765625 171.152344 40.40625 175.289062 39.753906 179.84375 C 39.632812 180.625 39.566406 181.414062 39.550781 182.203125 L 39.550781 183.273438 C 39.550781 183.550781 39.550781 183.820312 39.550781 184.085938 C 39.550781 189.519531 39.550781 194.964844 39.550781 200.378906 L 39.574219 202.296875 C 39.597656 203.230469 39.695312 204.160156 39.863281 205.078125 C 40.191406 206.917969 40.804688 208.695312 41.679688 210.34375 C 43.402344 213.613281 46.039062 216.308594 49.265625 218.105469 C 52.003906 219.636719 55.078125 220.484375 58.214844 220.566406 Z M 69.066406 218.734375 L 83.066406 218.890625 L 82.773438 218.988281 L 80.484375 218.941406 L 76.675781 218.980469 L 70.265625 218.980469 C 69.632812 218.953125 69.003906 218.890625 68.378906 218.796875 Z M 46.144531 196.605469 L 46.066406 193.574219 L 46.066406 193.671875 C 46.066406 194.945312 46.066406 196.226562 46.066406 197.730469 C 45.867188 194.441406 45.847656 191.144531 46 187.855469 L 46.210938 192.691406 C 46.238281 193.398438 46.183594 194.570312 46.144531 196.605469 Z M 53.371094 201.953125 C 53.257812 202.425781 53.230469 202.910156 53.289062 203.390625 C 53.429688 203.875 53.648438 204.335938 53.941406 204.75 C 54.003906 204.703125 54.171875 204.800781 54.109375 204.585938 C 53.960938 203.863281 53.996094 204.085938 54.933594 205.125 C 55.613281 205.800781 56.472656 206.269531 57.410156 206.476562 C 57.917969 206.597656 58.433594 206.664062 58.953125 206.671875 C 60.035156 206.671875 61.09375 206.726562 62.109375 206.785156 C 62.925781 206.835938 63.863281 206.929688 63.703125 206.988281 C 62.734375 207.355469 61.539062 207.714844 60.25 208.074219 C 59.757812 208.175781 59.253906 208.226562 58.75 208.226562 C 58.1875 208.246094 57.625 208.179688 57.078125 208.03125 C 55.433594 207.617188 54.003906 206.597656 53.078125 205.175781 C 52.648438 204.5 52.351562 203.75 52.210938 202.960938 C 52.140625 202.535156 52.105469 202.105469 52.105469 201.675781 L 52.105469 199.371094 C 52.105469 193.796875 52.558594 188.453125 52.921875 190.640625 C 52.953125 190.855469 52.984375 191.433594 53.003906 191.953125 Z M 62.25 174.835938 C 61.640625 174.804688 59.046875 174.835938 58.539062 174.898438 C 57.617188 175.003906 56.738281 175.328125 55.96875 175.851562 C 55.164062 176.332031 54.386719 176.855469 53.636719 177.421875 C 52.191406 178.421875 51.363281 180.710938 51.011719 181.054688 C 50.710938 181.285156 50.386719 182.609375 50.28125 184.398438 C 50.226562 184.863281 50.144531 185.121094 50.085938 184.898438 C 49.960938 184.433594 49.839844 183.601562 49.769531 183.214844 C 49.605469 179.652344 51.605469 176.34375 54.835938 174.835938 C 55.804688 174.359375 56.847656 174.046875 57.921875 173.914062 L 58.765625 173.851562 L 62.40625 173.851562 C 64.90625 173.898438 67.875 173.851562 70.226562 173.851562 L 72.226562 174.394531 L 74.484375 174.894531 C 70.953125 174.886719 66.589844 175.085938 62.25 174.828125 Z M 83.5 207.753906 C 83.65625 207.683594 83.804688 207.597656 83.945312 207.5 C 83.796875 207.539062 83.644531 207.566406 83.488281 207.578125 L 69.113281 206.679688 L 69.613281 206.589844 L 83.046875 206.589844 C 84.308594 206.601562 85.550781 206.234375 86.605469 205.535156 C 87.535156 204.890625 88.058594 204.296875 88.335938 204.140625 C 88.609375 203.984375 88.769531 204.316406 88.273438 205.269531 C 88.039062 205.6875 87.726562 206.058594 87.355469 206.363281 C 86.261719 207.246094 84.90625 207.738281 83.5 207.753906 Z M 254.125 120.441406 L 254.171875 122.605469 C 254.171875 105.773438 254.136719 88.949219 254.121094 72 C 254.121094 63.527344 254.113281 55.027344 254.09375 46.5 C 254.011719 42.210938 254.300781 38 253.773438 33.539062 C 253.171875 29.128906 251.640625 24.898438 249.273438 21.128906 C 249.699219 21.949219 249.699219 22.058594 249.351562 21.574219 C 248.664062 20.535156 247.921875 19.535156 247.128906 18.574219 C 243.601562 14.183594 238.96875 10.8125 233.703125 8.804688 C 230.316406 7.855469 228.058594 7.613281 224.015625 7.621094 C 222.628906 7.621094 222.300781 7.695312 223.015625 7.789062 C 223.730469 7.886719 225.515625 7.921875 228.316406 8.46875 C 232.144531 9.277344 235.792969 10.792969 239.070312 12.933594 C 244.140625 16.335938 248.066406 21.1875 250.324219 26.859375 C 252.023438 31.066406 252.53125 35.558594 252.429688 40.21875 C 252.429688 44.886719 252.429688 49.5625 252.429688 54.25 C 252.429688 63.628906 252.453125 73.046875 252.46875 82.398438 C 252.46875 94.398438 252.515625 108.035156 252.535156 118.128906 C 252.65625 148.070312 252.773438 178.421875 252.910156 212.5 C 252.855469 216.179688 253.054688 219.890625 252.808594 223.5 C 252.515625 227.054688 251.601562 230.53125 250.113281 233.773438 C 245.292969 244.210938 234.992188 251.035156 223.5 251.40625 C 225 251.089844 224.101562 251.183594 219.835938 251.074219 L 196.175781 251 L 160.371094 251.035156 L 44 250.949219 C 43.804688 250.945312 43.609375 250.925781 43.414062 250.894531 L 49.335938 250.863281 L 195.171875 250.738281 L 206.878906 250.816406 C 212.710938 250.78125 218.640625 250.910156 224.445312 250.730469 C 230.230469 250.394531 235.792969 248.375 240.445312 244.921875 C 239.558594 245.421875 240.125 245.050781 237.515625 246.511719 C 233.792969 248.546875 229.671875 249.757812 225.441406 250.054688 C 221.03125 250.226562 216.015625 249.910156 211.25 249.859375 L 221.914062 249.746094 C 223.289062 249.746094 224.355469 249.613281 225.414062 249.578125 L 228.238281 249.164062 C 229.96875 248.8125 231.671875 248.324219 233.324219 247.710938 C 235.527344 246.882812 237.621094 245.785156 239.554688 244.445312 C 241.03125 243.570312 244.390625 240.578125 246.355469 237.699219 C 249.335938 233.519531 251.140625 228.617188 251.578125 223.5 C 251.78125 220.773438 251.664062 217.660156 251.675781 214.679688 C 251.683594 211.699219 251.640625 208.679688 251.625 205.738281 C 251.5 194.039062 251.386719 183.589844 251.339844 179.238281 C 251.28125 176.851562 251.195312 172.875 251.191406 169.136719 C 251.191406 151.914062 251.191406 134.488281 251.191406 117.210938 C 251.191406 86.054688 250.859375 62.515625 250.488281 70.664062 C 250.398438 72.605469 250.28125 71.605469 250.160156 68.863281 C 250.160156 68.800781 250.160156 68.734375 250.160156 68.664062 C 249.929688 63.375 249.699219 51.96875 249.660156 41.664062 C 249.691406 37.664062 249.609375 34.785156 249.023438 32.070312 C 248.488281 29.667969 247.636719 27.347656 246.5 25.164062 C 244.910156 22.164062 242.734375 19.515625 240.101562 17.371094 C 236.191406 14.226562 234.234375 13.914062 233.515625 13.585938 C 232.929688 13.398438 235.796875 14.914062 233.195312 13.730469 C 227.335938 11.601562 225.804688 12.148438 227.613281 12.371094 C 231.945312 13.394531 235.960938 15.453125 239.320312 18.371094 C 236.519531 16.023438 233.234375 14.332031 229.699219 13.410156 C 239.582031 16.433594 246.679688 25.097656 247.699219 35.378906 C 247.726562 36.433594 247.835938 37.234375 247.824219 38.429688 C 247.816406 39.625 247.824219 40.664062 247.824219 41.683594 C 247.824219 43.726562 247.824219 45.480469 247.824219 46.75 C 247.765625 52.066406 247.726562 57.675781 247.695312 63.449219 L 242.65625 63.449219 L 245.054688 63.144531 C 236.269531 63.09375 226.941406 63.078125 221.21875 62.988281 C 213.164062 62.863281 204.910156 62.859375 197.140625 62.921875 C 193.230469 62.949219 191.914062 63.089844 189.433594 63.179688 L 190.171875 63.25 C 182.765625 63.210938 173.414062 63.203125 168.34375 63.113281 C 156.230469 62.910156 136.550781 62.84375 121.34375 63.003906 C 118.890625 63.03125 115.34375 63.03125 112.34375 63.03125 C 96.625 63.03125 80.84375 63.03125 65.199219 63.03125 C 51.625 63.03125 38.199219 63.109375 24.640625 63.125 L 15.765625 63.125 C 15.765625 60.433594 15.765625 57.738281 15.765625 55.066406 C 15.765625 49.324219 15.765625 43.628906 15.765625 38.066406 C 15.65625 27.050781 23.167969 17.425781 33.875 14.851562 C 35.402344 14.46875 36.964844 14.257812 38.539062 14.21875 C 39.230469 14.160156 40.300781 14.164062 41.328125 14.171875 L 56.59375 14.171875 L 105.894531 14.101562 L 115.535156 14.101562 C 136 14.355469 142.089844 14 155.070312 13.949219 C 160.246094 13.949219 162.203125 13.746094 163.570312 13.628906 C 164.679688 13.539062 160.570312 13.429688 162.570312 13.34375 C 167.570312 13.128906 182.738281 12.898438 179.109375 12.71875 C 174.5 12.5 184 12.421875 192 12.273438 L 167.640625 12.113281 C 192.730469 11.953125 177.5 11.5 208.191406 11.398438 L 197.890625 11.328125 L 222.664062 10.285156 L 171.164062 10.285156 C 171.164062 10.144531 175.289062 9.976562 170.371094 9.863281 C 157.273438 9.570312 131.949219 9.710938 113.570312 9.738281 C 98.34375 9.738281 87.210938 9.738281 80.433594 9.613281 C 73.066406 9.46875 64.285156 9.449219 52.433594 9.449219 L 43.433594 9.449219 C 41.933594 9.449219 40.390625 9.414062 38.964844 9.449219 C 37.574219 9.46875 36.183594 9.59375 34.808594 9.824219 L 34.765625 9.761719 C 38.765625 9.089844 43.433594 9.398438 47.945312 9.308594 L 61.5 9.28125 L 88.625 9.226562 L 54.625 9.171875 L 39.394531 9.171875 C 37.8125 9.199219 36.230469 9.339844 34.671875 9.601562 C 21.738281 11.804688 11.980469 22.554688 11.035156 35.640625 C 10.820312 42.085938 10.964844 49.011719 10.910156 55.640625 C 10.878906 76.769531 10.535156 104.035156 10.261719 91.519531 L 9.691406 56.09375 C 9.691406 54.488281 9.691406 48.484375 9.691406 44.511719 L 9.855469 46.011719 C 9.890625 41.628906 9.621094 37.613281 10.074219 33.699219 C 10.636719 29.355469 12.144531 25.191406 14.5 21.5 C 12.554688 24.457031 11.152344 27.734375 10.351562 31.179688 C 9.996094 32.691406 9.769531 34.234375 9.679688 35.785156 C 9.53125 36.285156 9.386719 37.285156 9.316406 36.863281 C 9.214844 36.273438 9.019531 37.515625 8.941406 36.558594 C 8.847656 35.371094 8.894531 34.175781 9.074219 33 C 9.476562 29.671875 10.464844 26.441406 12 23.460938 C 13.988281 19.515625 16.808594 16.050781 20.261719 13.296875 C 22.582031 11.445312 25.136719 9.914062 27.859375 8.738281 L 30.035156 7.859375 C 30.898438 7.589844 31.921875 7.335938 33.144531 7.003906 C 35.609375 6.503906 39.050781 6.261719 43.609375 6.34375 C 52.179688 6.34375 64.199219 6.273438 67.304688 6.195312 C 71.226562 6.09375 67.683594 5.949219 67.261719 5.785156 L 74.320312 5.726562 L 42.449219 5.695312 L 40 5.878906 C 24.773438 5.609375 12 16.171875 8.628906 29.53125 C 8.183594 31.210938 7.867188 32.921875 7.691406 34.648438 C 7.589844 36.398438 7.503906 38.148438 7.539062 39.808594 C 7.539062 43.183594 7.539062 46.609375 7.539062 50.113281 C 7.539062 57.113281 7.574219 64.464844 7.59375 72.398438 C 7.535156 69.34375 7.503906 67.929688 7.476562 66.210938 C 7.476562 73.851562 7.429688 80.28125 7.414062 85.710938 C 7.273438 88.160156 7.144531 89.015625 7.035156 93.011719 C 7.035156 95.113281 6.941406 103.953125 6.910156 107.628906 C 6.886719 136.050781 6.859375 162.203125 6.835938 189.628906 C 6.835938 196.324219 6.835938 203.820312 6.835938 209.558594 C 6.851562 213.28125 6.871094 217.050781 6.890625 220.871094 C 6.914062 224.980469 7.710938 229.050781 9.230469 232.871094 C 12.390625 240.726562 18.480469 247.046875 26.214844 250.5 C 30.085938 252.230469 34.261719 253.179688 38.5 253.296875 C 42.589844 253.378906 46.5 253.296875 50.5 253.320312 L 74.101562 253.265625 L 188.476562 252.824219 C 202.234375 252.746094 222.015625 252.710938 218.394531 252.398438 C 217.394531 252.316406 218.191406 252.269531 221.421875 252.253906 C 224.558594 252.15625 230.878906 252.410156 238.824219 247.753906 C 246.742188 243.035156 252.160156 235.042969 253.613281 225.941406 C 254.304688 221.523438 253.976562 217.226562 254.054688 212.941406 L 254.054688 187.15625 C 254.054688 169.960938 254.054688 152.773438 254.054688 135.585938 C 254.066406 130.5 254.09375 125.5 254.125 120.441406 Z M 35.550781 12.5 C 36.9375 12.292969 38.339844 12.183594 39.746094 12.175781 L 54.671875 12.175781 L 74.566406 12.214844 L 114.355469 12.296875 L 112.695312 12.394531 L 99.671875 12.34375 L 78 12.394531 L 41.5 12.414062 C 39.300781 12.390625 38 12.445312 36.5 12.523438 L 34.394531 12.785156 L 32.296875 13.261719 C 33.359375 12.925781 34.449219 12.671875 35.550781 12.5 Z M 9.933594 226.894531 C 9 222.539062 9.351562 217.894531 9.238281 212.984375 C 9.238281 208.984375 9.273438 202.304688 9.308594 190.71875 C 9.355469 200.933594 9.371094 204.445312 9.390625 207.953125 L 9.390625 207.421875 C 9.390625 200.15625 9.390625 192.890625 9.390625 184.308594 C 9.445312 195.625 9.5 207.023438 9.550781 216.921875 C 9.550781 219.421875 9.550781 221.773438 9.703125 223.96875 C 9.878906 225.058594 10.011719 226.136719 10.203125 227.160156 C 10.398438 228.183594 10.703125 229.160156 10.980469 230.09375 C 11.738281 232.527344 12.8125 234.847656 14.175781 237 C 12.152344 233.921875 10.714844 230.496094 9.933594 226.894531 Z M 120.816406 67.796875 L 195 67.703125 C 196.90625 67.703125 198.898438 67.761719 200.953125 67.761719 C 206.90625 67.761719 212.90625 67.761719 218.886719 67.761719 C 218.320312 67.605469 217.734375 67.53125 217.148438 67.546875 C 213.035156 67.375 208.089844 67.214844 203.183594 67.046875 C 212.425781 66.890625 212.320312 66.890625 218.648438 67.046875 C 219.566406 67.070312 221.945312 67.085938 223.800781 67.09375 C 230.429688 67.121094 240.585938 67.050781 247.644531 66.949219 C 247.644531 67.296875 247.644531 67.648438 247.644531 68 L 237.644531 68 C 233.894531 68 230.144531 68.03125 226.574219 68.054688 C 221.253906 68.089844 216.074219 68.136719 209.398438 68.183594 C 210.949219 67.898438 207.515625 67.828125 195.496094 67.839844 C 189.414062 67.839844 183.328125 67.871094 177.285156 67.863281 L 118.09375 67.808594 C 117.992188 67.804688 117.894531 67.792969 117.796875 67.769531 C 118.78125 67.816406 119.769531 67.800781 120.808594 67.796875 Z M 101.375 67.835938 C 96.75 67.890625 92.375 67.953125 87.375 67.988281 C 85.328125 67.988281 81.941406 67.988281 76.050781 67.933594 L 84.816406 67.875 L 72.796875 67.875 C 84.304688 67.734375 96 67.714844 101.375 67.835938 Z M 15.765625 66.796875 C 23.839844 66.886719 30.34375 67.070312 25.601562 67.226562 C 22.859375 67.316406 19.410156 67.394531 15.765625 67.476562 C 15.765625 67.25 15.765625 67.023438 15.765625 66.796875 Z M 15.886719 69.21875 Z M 39.460938 244.5 L 37.644531 244.40625 C 36.464844 244.320312 35.296875 244.144531 34.144531 243.875 C 25.1875 241.796875 18.253906 234.703125 16.378906 225.699219 L 16.046875 223.488281 L 15.921875 221.25 L 15.921875 215.546875 C 15.921875 200.085938 15.921875 184.648438 15.921875 169.234375 C 15.878906 142.546875 15.835938 116.171875 15.796875 89.480469 C 15.796875 84.246094 15.796875 78.914062 15.796875 73.566406 C 22.058594 73.566406 28.40625 73.535156 34.585938 73.53125 C 44.429688 73.53125 45.710938 73.453125 40.988281 73.304688 C 39.574219 73.261719 40.734375 73.191406 40.71875 73.128906 C 44.109375 73.128906 48.71875 73.128906 50.636719 73.128906 C 54.804688 73.199219 57.605469 73.289062 60.273438 73.359375 L 89.53125 73.113281 C 91.03125 73.113281 92.71875 73.078125 93.339844 73.050781 C 99.660156 72.78125 84.210938 72.433594 68.085938 72.441406 C 50.660156 72.441406 33.085938 72.410156 15.804688 72.371094 C 15.804688 71.371094 15.804688 70.359375 15.804688 69.339844 L 22.683594 69.371094 C 23.929688 69.476562 24.363281 69.570312 26.398438 69.65625 C 27.464844 69.699219 31.964844 69.761719 33.835938 69.75 C 48.289062 69.671875 61.589844 69.816406 75.546875 69.804688 C 78.949219 69.804688 82.761719 69.804688 85.679688 69.804688 C 100.820312 69.683594 117.636719 69.695312 133.445312 69.621094 C 153.25 69.523438 173.144531 69.449219 191.609375 69.289062 C 198.609375 69.230469 208.671875 69.203125 206.824219 68.96875 C 205.824219 68.84375 208.394531 68.835938 217.410156 68.871094 C 219.609375 68.871094 222.019531 68.871094 224.335938 68.871094 L 247.664062 68.871094 C 247.59375 86.328125 247.609375 105.175781 247.601562 123.269531 C 247.628906 139.96875 247.664062 157.003906 247.699219 175.679688 C 247.339844 173.679688 246.910156 153.960938 246.84375 202.738281 L 246.441406 198.023438 C 246.441406 202.339844 246.410156 206.730469 246.394531 211.050781 C 246.394531 213.214844 246.394531 215.359375 246.394531 217.476562 C 246.394531 218.53125 246.394531 219.582031 246.394531 220.625 L 246.269531 223.089844 C 245.101562 235.152344 234.941406 244.34375 222.820312 244.300781 L 199.378906 244.351562 C 191.695312 244.390625 189.109375 244.574219 184.230469 244.695312 L 185.679688 244.789062 L 142.761719 244.609375 C 118.941406 244.335938 80.261719 244.25 50.304688 244.464844 L 41.789062 244.5 Z M 3 33.355469 C 2.761719 37.621094 3.128906 40.878906 3.265625 44.589844 C 3.421875 47.75 3.460938 55.589844 3.433594 70.125 C 3.40625 104.808594 3.371094 140.023438 3.335938 174.976562 C 3.335938 190.828125 3.226562 206.351562 3.066406 216.359375 C 2.859375 221.03125 3.113281 225.859375 3.445312 227.675781 C 3.746094 229.570312 3.445312 229.113281 2.816406 225.40625 C 2.636719 224.167969 2.53125 222.921875 2.5 221.675781 C 2.421875 220.058594 2.453125 218.675781 2.429688 217.140625 C 2.324219 198.390625 2.214844 179.460938 2.101562 159.640625 L 2.40625 140.683594 C 2.40625 136.894531 2.40625 127.855469 2.40625 121.183594 C 2.324219 121.214844 2.230469 118.941406 2.175781 121.71875 C 1.976562 130.996094 1.878906 128.480469 1.875 109.121094 C 1.875 96.535156 1.839844 83.535156 1.820312 70.789062 C 1.820312 64.421875 1.820312 58.109375 1.820312 51.953125 L 1.859375 42.839844 C 1.859375 41.34375 1.871094 39.859375 1.890625 38.386719 C 1.914062 36.648438 2.027344 34.910156 2.226562 33.183594 C 2.855469 27.484375 5.726562 21.46875 5.363281 22.566406 C 4.058594 26.027344 3.261719 29.664062 3 33.355469 Z M 223.90625 254.769531 C 228.722656 254.78125 233.484375 253.757812 237.871094 251.769531 C 235.25 253.0625 232.484375 254.023438 229.628906 254.636719 C 228.140625 254.917969 226.640625 255.117188 225.128906 255.230469 L 222.828125 255.34375 L 220.746094 255.34375 L 203.539062 255.378906 C 191.734375 255.378906 179.355469 255.378906 167.003906 255.253906 L 145.390625 255.308594 C 135.863281 255.449219 127.628906 255.609375 122.351562 255.773438 C 117.296875 255.933594 109.960938 256.015625 97.128906 255.964844 C 82.023438 255.90625 59.859375 256.015625 55.964844 255.660156 C 55.019531 255.574219 50.765625 255.496094 45.71875 255.414062 L 41.828125 255.355469 C 40.519531 255.355469 39.214844 255.355469 37.691406 255.210938 C 35.019531 255.050781 32.378906 254.570312 29.824219 253.78125 C 27.011719 252.824219 25.558594 252.105469 26.863281 252.554688 C 29.609375 253.710938 34.863281 254.554688 37.304688 254.554688 C 39.328125 254.691406 41.023438 254.644531 42.804688 254.644531 L 48.03125 254.644531 L 58.339844 254.613281 L 78.445312 254.554688 L 116.945312 254.425781 C 133.695312 254.355469 147.390625 254.21875 168.019531 254.296875 L 212.519531 254.296875 C 216.378906 254.441406 219.613281 254.703125 223.90625 254.769531 Z M 37.214844 0.226562 C 36.136719 0.234375 35.0625 0.324219 34 0.5 C 35.199219 0.273438 36.410156 0.132812 37.628906 0.0859375 L 39.628906 0 L 64.53125 0 C 97.441406 0.0546875 131.53125 -0.0585938 163.398438 0.179688 C 193.339844 0.410156 203.941406 0.921875 180 1.21875 L 164.074219 1.304688 L 118.488281 1.191406 L 123.605469 0.96875 L 118.464844 1 L 76.746094 0.539062 L 55.886719 0.324219 L 45.449219 0.210938 L 40.234375 0.148438 C 39.460938 0.121094 38.238281 0.191406 37.214844 0.226562 Z M 111.378906 71.046875 C 110.035156 71.003906 109.300781 70.945312 109.929688 70.898438 C 111.273438 70.804688 113.691406 70.714844 114.808594 70.664062 C 129.183594 70.601562 142.460938 70.550781 155.203125 70.476562 C 163.703125 70.425781 170.703125 70.324219 181.203125 70.378906 C 188.425781 70.421875 197.03125 70.378906 203.824219 70.378906 C 205.765625 70.519531 207.5 70.65625 209.558594 70.789062 C 211.46875 70.914062 213.726562 71.035156 216.09375 71.175781 C 205.871094 71.175781 193.246094 71.316406 180.683594 71.125 C 178.800781 71.09375 171.683594 71.125 169.683594 71.164062 C 164.839844 71.269531 160.65625 71.390625 157.96875 71.515625 C 155.398438 71.636719 151.671875 71.695312 145.144531 71.65625 C 137.460938 71.609375 126.191406 71.691406 124.210938 71.425781 C 123.234375 71.28125 115.539062 71.171875 111.378906 71.046875 Z M 37.378906 33.589844 C 36.863281 33.851562 36.390625 34.1875 35.976562 34.589844 C 33.265625 37.34375 32.476562 43.164062 34.476562 46.519531 C 36.429688 49.726562 41.976562 50.328125 45.285156 49.695312 C 49.203125 48.933594 51.828125 45.070312 51.640625 41.054688 C 51.339844 34.175781 41.40625 28.5 37.378906 33.589844 Z M 47.535156 38 C 48.921875 40.070312 49.109375 42.558594 47.691406 44.675781 C 47.21875 45.402344 46.542969 45.972656 45.75 46.316406 C 46.992188 45.4375 47.808594 44.074219 48 42.566406 C 48.394531 39.234375 46.4375 36.070312 43.285156 34.929688 C 43.285156 34.878906 43.285156 34.808594 43.285156 34.761719 C 44.996094 35.386719 46.480469 36.515625 47.535156 38 Z M 44.121094 39 C 47.621094 42.910156 40.769531 46.601562 39.144531 42.246094 C 39.035156 41.941406 38.949219 41.628906 38.886719 41.308594 C 39.980469 42.128906 41.167969 42.8125 42.425781 43.34375 C 42.894531 43.613281 43.476562 43.609375 43.941406 43.332031 C 44.40625 43.050781 44.6875 42.542969 44.671875 42 C 44.703125 39.859375 43.554688 38.648438 41.941406 37.871094 C 42.742188 38.074219 43.488281 38.460938 44.121094 39 Z M 61.804688 33.609375 C 61.289062 33.871094 60.816406 34.207031 60.398438 34.609375 C 57.691406 37.363281 56.898438 43.183594 58.898438 46.539062 C 60.855469 49.746094 66.398438 50.351562 69.710938 49.714844 C 73.628906 48.953125 76.253906 45.089844 76.066406 41.074219 C 75.769531 34.175781 65.835938 28.5 61.804688 33.589844 Z M 72.425781 42.609375 C 72.542969 41.777344 72.5 40.925781 72.296875 40.109375 C 72.335938 40.050781 72.371094 39.992188 72.40625 39.929688 C 72.488281 39.695312 72.535156 39.449219 72.535156 39.199219 C 73.375 40.988281 73.21875 43.085938 72.113281 44.726562 C 71.644531 45.449219 70.96875 46.019531 70.175781 46.363281 C 71.429688 45.476562 72.246094 44.097656 72.425781 42.570312 Z M 68.050781 43.429688 C 68.101562 43.476562 68.15625 43.519531 68.214844 43.558594 C 66.714844 44.605469 64.410156 44.558594 63.550781 42.261719 C 63.441406 41.953125 63.355469 41.640625 63.289062 41.324219 C 64.382812 42.140625 65.574219 42.824219 66.828125 43.359375 C 67.214844 43.53125 67.65625 43.542969 68.050781 43.390625 Z M 86.234375 33.628906 C 85.71875 33.890625 85.246094 34.226562 84.828125 34.628906 C 82.121094 37.386719 81.328125 43.203125 83.328125 46.558594 C 85.285156 49.765625 90.828125 50.371094 94.140625 49.734375 C 98.058594 48.976562 100.683594 45.109375 100.496094 41.09375 C 100.199219 34.175781 90.261719 28.5 86.234375 33.589844 Z M 96.390625 38 C 97.234375 39.246094 97.589844 40.761719 97.390625 42.253906 C 97.230469 42.148438 97.054688 42.074219 96.863281 42.035156 C 96.996094 38.890625 95.078125 36.023438 92.125 34.941406 C 92.125 34.890625 92.125 34.820312 92.125 34.769531 C 93.839844 35.390625 95.328125 36.515625 96.390625 38 Z M 202.761719 100.5 C 202.984375 100.285156 205.199219 100.023438 199.71875 100 L 200.25 99.761719 C 198.308594 99.71875 196.25 99.710938 194.988281 99.636719 C 193.210938 99.535156 191.390625 99.53125 189.675781 99.578125 C 189.105469 99.605469 188.535156 99.671875 187.976562 99.785156 L 188.140625 99.839844 C 186.503906 99.804688 184.441406 99.800781 183.320312 99.734375 C 180.644531 99.570312 176.320312 99.519531 172.941406 99.648438 C 172.398438 99.648438 171.621094 99.648438 170.941406 99.648438 C 167.46875 99.648438 163.988281 99.648438 160.53125 99.648438 C 157.53125 99.648438 154.570312 99.714844 151.574219 99.726562 C 149.046875 99.726562 146.335938 99.726562 143.96875 99.683594 C 140.246094 99.605469 136.671875 99.574219 132.921875 99.65625 C 132.59375 99.65625 132.035156 99.65625 131.839844 99.65625 C 129.539062 99.503906 128.839844 99.714844 127.398438 99.746094 C 127.070312 99.730469 126.742188 99.796875 126.445312 99.933594 C 126.320312 99.988281 126.78125 100.054688 126.554688 100.105469 C 125.988281 100.234375 124.289062 100.371094 124.699219 100.480469 C 125.199219 100.621094 124.15625 100.679688 123.261719 100.765625 L 125.996094 100.859375 C 123.175781 100.953125 124.886719 101.230469 121.441406 101.289062 L 122.59375 101.328125 L 119.816406 101.960938 L 125.601562 101.960938 C 125.601562 102.046875 125.136719 102.144531 125.691406 102.214844 C 127.160156 102.390625 130.003906 102.308594 132.066406 102.289062 C 133.773438 102.289062 135.023438 102.289062 135.785156 102.363281 C 136.546875 102.441406 137.601562 102.464844 138.925781 102.464844 C 139.59375 102.464844 140.273438 102.464844 140.925781 102.464844 C 140.925781 102.464844 140.925781 102.496094 140.925781 102.511719 L 134.835938 102.578125 C 136.15625 102.609375 137.40625 102.609375 138.65625 102.609375 C 141.691406 102.609375 144.753906 102.609375 147.753906 102.609375 C 150.128906 102.609375 153.191406 102.835938 151.785156 103 C 150.734375 103.125 149.203125 103.230469 147.785156 103.339844 C 147.605469 103.339844 146.929688 103.339844 146.484375 103.339844 L 146.65625 103.238281 L 143.753906 103.339844 L 145.511719 103.410156 C 145.566406 103.484375 145.679688 103.539062 145.636719 103.59375 C 145.5 103.75 146.195312 103.914062 144.085938 104.039062 C 143.226562 104.089844 141.863281 104.136719 141.644531 104.195312 C 141.058594 104.285156 140.464844 104.316406 139.875 104.285156 C 138.914062 104.285156 137.566406 104.324219 137.214844 104.375 C 136.773438 104.433594 137.175781 104.523438 137.214844 104.621094 L 136.421875 104.65625 L 140 104.65625 L 140.28125 104.546875 C 141.90625 104.574219 143.355469 104.613281 144.835938 104.621094 C 146.316406 104.625 147.835938 104.589844 149.621094 104.570312 L 148.925781 104.640625 L 151.113281 104.675781 C 151.378906 104.78125 151.652344 104.859375 151.933594 104.90625 C 152.171875 104.941406 153.164062 104.988281 153.574219 104.980469 C 156.765625 104.914062 159.703125 105.03125 162.785156 105.023438 C 163.535156 105.023438 164.378906 105.023438 165.023438 105.023438 C 168.371094 104.929688 172.078125 104.933594 175.570312 104.875 C 179.941406 104.800781 184.335938 104.738281 188.410156 104.609375 C 189.953125 104.558594 192.175781 104.539062 191.769531 104.355469 C 191.550781 104.253906 192.113281 104.25 194.105469 104.273438 C 194.605469 104.273438 195.105469 104.273438 195.636719 104.273438 L 207.214844 104.273438 C 207.789062 104.273438 208.351562 104.308594 208.914062 104.328125 L 208.671875 104.359375 L 220.113281 104.296875 C 219.710938 104.140625 220.75 104.058594 222.335938 104.046875 C 222.6875 103.855469 223.054688 103.6875 223.429688 103.546875 C 224.058594 103.335938 222.78125 103.253906 219.484375 103.300781 C 217.414062 103.328125 215.289062 103.335938 213.183594 103.355469 C 211.835938 103.355469 210.304688 103.355469 209.183594 103.394531 C 205.824219 103.511719 202.414062 103.601562 198.589844 103.621094 C 197.761719 103.621094 196.933594 103.644531 196.144531 103.664062 L 192.355469 103.769531 C 192.695312 103.546875 191.941406 103.488281 189.285156 103.496094 C 187.941406 103.496094 186.601562 103.496094 185.285156 103.496094 L 172.234375 103.5 C 172.203125 103.5 172.195312 103.5 172.171875 103.46875 L 172.835938 103.46875 L 189.210938 103.394531 C 189.628906 103.394531 190.070312 103.441406 190.523438 103.441406 C 191.839844 103.441406 193.164062 103.441406 194.484375 103.441406 C 194.371094 103.378906 194.449219 103.320312 194.101562 103.269531 C 193.191406 103.136719 192.101562 103.003906 191.015625 102.863281 C 192.148438 102.726562 193.296875 102.726562 194.429688 102.863281 C 194.628906 102.863281 195.15625 102.898438 195.566406 102.90625 C 197.664062 102.933594 201.386719 102.804688 202.359375 102.679688 C 202.734375 102.628906 203.113281 102.597656 203.496094 102.589844 C 205.429688 102.589844 207.386719 102.589844 209.324219 102.589844 C 212.824219 102.589844 215.464844 102.394531 214.550781 102.171875 C 213.921875 102.015625 216.015625 101.695312 217.804688 101.671875 C 221.238281 101.636719 221.976562 101.484375 222.183594 101.339844 C 222.265625 101.285156 221.839844 101.21875 222.214844 101.179688 C 223.84375 101.015625 222.945312 100.886719 221.214844 100.789062 L 222.691406 100.65625 C 221.859375 100.621094 221.09375 100.566406 220.191406 100.550781 C 219.285156 100.535156 217.835938 100.550781 217.265625 100.550781 C 214.714844 100.398438 211.601562 100.429688 208.675781 100.421875 C 206.769531 100.425781 204.859375 100.464844 202.761719 100.5 Z M 140.910156 100.835938 L 132 100.734375 L 132.183594 100.675781 C 132.683594 100.675781 133.183594 100.703125 133.648438 100.703125 C 134.464844 100.703125 135.269531 100.703125 136.085938 100.703125 C 137.449219 100.703125 138.839844 100.703125 140.179688 100.703125 C 140.582031 100.722656 140.984375 100.761719 141.386719 100.820312 Z M 165.449219 103.640625 C 165 103.640625 164.25 103.640625 162.949219 103.59375 L 164.886719 103.550781 L 162.230469 103.550781 C 164.769531 103.433594 167.351562 103.421875 168.539062 103.515625 C 167.5 103.550781 166.554688 103.601562 165.453125 103.628906 Z M 155.199219 107.875 C 156.238281 107.996094 155.960938 108.050781 153.785156 108.054688 C 150.960938 108.054688 147.945312 108.15625 145.351562 108.003906 C 145.011719 108.015625 144.675781 107.972656 144.351562 107.886719 C 144.96875 107.664062 145.730469 107.449219 146.554688 107.234375 C 147.503906 107.117188 148.464844 107.082031 149.421875 107.136719 C 153.316406 107.171875 157.269531 107.195312 161.191406 107.195312 C 164.75 107.195312 168.160156 107.46875 166.765625 107.695312 C 166.628906 107.695312 166.265625 107.734375 165.925781 107.746094 L 159.464844 107.945312 C 158.875 107.890625 158.261719 107.816406 157.335938 107.761719 C 156.910156 107.761719 155.894531 107.761719 155.144531 107.761719 C 155.148438 107.773438 154.894531 107.828125 155.203125 107.863281 Z M 173.574219 106.375 C 173.363281 106.269531 171.664062 106.183594 170.746094 106.085938 C 170.449219 106.054688 170.285156 106.003906 170.425781 105.96875 C 170.71875 105.894531 171.253906 105.820312 171.503906 105.78125 C 174.679688 105.726562 177.609375 105.691406 180.425781 105.625 C 182.304688 105.585938 183.84375 105.503906 186.160156 105.546875 C 187.753906 105.574219 189.660156 105.546875 191.160156 105.546875 C 191.589844 105.65625 191.96875 105.765625 192.425781 105.875 C 192.878906 105.984375 193.34375 106.070312 193.871094 106.183594 C 191.613281 106.183594 188.824219 106.300781 186.054688 106.144531 C 185.640625 106.144531 184.054688 106.144531 183.628906 106.175781 C 182.558594 106.261719 181.628906 106.355469 181.046875 106.453125 C 180.105469 106.578125 179.160156 106.613281 178.214844 106.566406 C 176.5 106.5 174 106.574219 173.578125 106.363281 Z M 131.5 107.398438 L 130.925781 107.535156 L 131.5 107.5 L 140.871094 108.054688 L 140.539062 108.109375 C 139.539062 108.109375 138.539062 108.109375 137.539062 108.109375 C 133.84375 108.078125 130.015625 108.144531 126.441406 108.003906 C 123.078125 107.871094 121.890625 107.566406 124.578125 107.386719 C 125.011719 107.355469 125.804688 107.328125 126.371094 107.335938 C 128.066406 107.34375 129.699219 107.375 131.5 107.398438 Z M 123.898438 126.371094 C 123.898438 126.453125 123.574219 126.554688 123.964844 126.625 C 125.460938 126.75 126.964844 126.777344 128.464844 126.699219 C 129.339844 126.667969 130.21875 126.691406 131.089844 126.773438 C 131.828125 126.859375 132.570312 126.894531 133.308594 126.875 C 133.785156 126.875 134.261719 126.875 134.738281 126.875 C 134.738281 126.875 134.738281 126.90625 134.738281 126.921875 L 130.441406 126.988281 C 131.371094 127.019531 132.253906 127.019531 133.136719 127.019531 C 135.28125 127.019531 137.441406 127.019531 139.558594 127.019531 C 141.234375 127.019531 143.394531 127.246094 142.40625 127.410156 C 141.660156 127.535156 140.585938 127.640625 139.59375 127.75 C 139.46875 127.75 138.988281 127.75 138.675781 127.75 L 138.796875 127.648438 L 136.746094 127.75 L 137.980469 127.820312 C 138.019531 127.894531 138.101562 127.949219 138.070312 128.003906 C 137.976562 128.160156 138.464844 128.324219 136.976562 128.449219 C 136.371094 128.5 135.40625 128.546875 135.253906 128.605469 C 134.84375 128.695312 134.421875 128.726562 134.003906 128.695312 C 133.378906 128.691406 132.75 128.722656 132.125 128.785156 C 131.816406 128.84375 132.09375 128.933594 132.125 129.03125 L 131.566406 129.066406 L 134.089844 129.066406 L 134.285156 128.953125 C 135.433594 128.984375 136.453125 129.023438 137.5 129.03125 C 138.546875 129.035156 139.621094 129 140.875 128.980469 L 140.375 129.050781 L 141.921875 129.085938 C 142.101562 129.191406 142.296875 129.265625 142.5 129.316406 C 142.882812 129.367188 143.273438 129.390625 143.660156 129.390625 C 145.910156 129.324219 147.984375 129.441406 150.160156 129.433594 C 150.691406 129.433594 151.285156 129.433594 151.738281 129.433594 C 154.101562 129.339844 156.738281 129.34375 159.183594 129.285156 C 162.269531 129.210938 165.371094 129.148438 168.25 129.019531 C 169.339844 128.96875 170.910156 128.949219 170.621094 128.765625 C 170.464844 128.664062 170.863281 128.660156 172.269531 128.683594 C 172.613281 128.683594 172.988281 128.683594 173.351562 128.683594 L 181.523438 128.683594 C 181.929688 128.683594 182.324219 128.71875 182.726562 128.738281 L 182.554688 128.769531 L 190.636719 128.703125 C 190.351562 128.550781 191.085938 128.46875 192.203125 128.453125 C 192.449219 128.269531 192.710938 128.101562 192.980469 127.953125 C 193.425781 127.746094 192.519531 127.664062 190.195312 127.710938 C 188.734375 127.738281 187.230469 127.746094 185.75 127.765625 C 184.800781 127.765625 183.71875 127.765625 182.921875 127.804688 C 180.546875 127.921875 178.140625 128.011719 175.421875 128.03125 C 174.835938 128.03125 174.25 128.054688 173.695312 128.074219 L 171.019531 128.179688 C 171.261719 127.953125 170.726562 127.898438 168.855469 127.90625 C 167.90625 127.90625 166.960938 127.90625 166.015625 127.90625 L 156.789062 127.859375 C 156.789062 127.859375 156.761719 127.859375 156.746094 127.828125 L 157.214844 127.828125 L 168.773438 127.753906 C 169.070312 127.753906 169.386719 127.800781 169.703125 127.800781 C 170.628906 127.800781 171.566406 127.800781 172.5 127.800781 C 172.421875 127.738281 172.476562 127.679688 172.230469 127.628906 C 171.589844 127.496094 170.820312 127.363281 170.054688 127.226562 C 170.851562 127.085938 171.667969 127.085938 172.464844 127.226562 C 172.609375 127.226562 172.964844 127.261719 173.269531 127.265625 C 174.871094 127.289062 176.472656 127.210938 178.066406 127.039062 C 178.328125 126.988281 178.597656 126.957031 178.863281 126.949219 C 180.230469 126.949219 181.609375 126.949219 182.980469 126.949219 C 185.449219 126.949219 187.316406 126.753906 186.671875 126.53125 C 186.226562 126.375 187.703125 126.054688 188.96875 126.03125 C 191.394531 125.996094 191.910156 125.84375 192.058594 125.699219 C 192.113281 125.644531 191.820312 125.578125 192.058594 125.539062 C 193.210938 125.375 192.558594 125.246094 191.339844 125.148438 L 192.378906 125.015625 C 191.796875 124.980469 191.253906 124.925781 190.605469 124.910156 C 189.953125 124.894531 188.945312 124.910156 188.539062 124.910156 C 186.738281 124.761719 184.539062 124.789062 182.476562 124.78125 C 181.148438 124.78125 179.800781 124.816406 178.320312 124.839844 C 178.480469 124.625 180.039062 124.363281 176.175781 124.339844 L 176.550781 124.101562 C 175.179688 124.058594 173.726562 124.050781 172.835938 123.976562 C 171.585938 123.882812 170.332031 123.863281 169.078125 123.921875 C 168.675781 123.945312 168.273438 124.015625 167.878906 124.125 L 167.996094 124.179688 C 166.839844 124.144531 165.386719 124.140625 164.59375 124.074219 C 162.15625 123.898438 159.707031 123.867188 157.265625 123.988281 C 156.878906 123.988281 156.335938 123.988281 155.859375 123.988281 C 153.410156 123.988281 150.953125 123.988281 148.515625 123.988281 C 146.398438 123.988281 144.308594 124.054688 142.195312 124.066406 C 140.410156 124.066406 138.496094 124.066406 136.824219 124.023438 C 134.195312 123.945312 131.671875 123.914062 129.023438 123.996094 C 128.796875 123.996094 128.398438 123.996094 128.261719 123.996094 C 126.640625 123.84375 126.15625 124.054688 125.125 124.085938 C 124.886719 124.074219 124.648438 124.140625 124.449219 124.273438 C 124.359375 124.328125 124.691406 124.394531 124.523438 124.445312 C 124.128906 124.574219 122.925781 124.710938 123.214844 124.820312 C 123.585938 124.960938 122.828125 125.019531 122.214844 125.105469 L 124.144531 125.199219 C 122.144531 125.296875 123.359375 125.570312 120.929688 125.628906 L 121.746094 125.671875 L 119.78125 126.300781 Z M 154.214844 127.929688 C 153.496094 127.976562 152.816406 128.023438 152.035156 128.054688 C 151.714844 128.054688 151.191406 128.054688 150.269531 128.011719 L 151.636719 127.964844 L 149.765625 127.964844 C 151.242188 127.851562 152.730469 127.839844 154.210938 127.933594 Z M 128.535156 125.09375 C 128.878906 125.09375 129.226562 125.125 129.570312 125.125 C 130.144531 125.125 130.710938 125.125 131.289062 125.125 C 132.253906 125.125 133.234375 125.125 134.179688 125.125 C 134.464844 125.140625 134.75 125.179688 135.03125 125.238281 L 134.714844 125.289062 L 128.40625 125.199219 Z M 144.753906 132.148438 C 144.753906 132.199219 144.574219 132.253906 144.796875 132.289062 C 145.53125 132.410156 145.328125 132.464844 143.796875 132.46875 C 141.796875 132.46875 139.675781 132.570312 137.839844 132.421875 C 137.476562 132.390625 137.050781 132.335938 137.121094 132.300781 C 137.628906 132.054688 138.148438 131.839844 138.679688 131.648438 C 139.339844 131.53125 140.011719 131.5 140.679688 131.550781 C 143.429688 131.585938 146.21875 131.609375 148.988281 131.609375 C 151.488281 131.609375 153.910156 131.886719 152.925781 132.109375 C 152.726562 132.136719 152.527344 132.15625 152.328125 132.160156 L 147.769531 132.359375 C 147.355469 132.304688 146.921875 132.230469 146.269531 132.175781 C 146 132.136719 145.285156 132.15625 144.753906 132.15625 Z M 171.070312 130.273438 C 171.371094 130.375 171.71875 130.46875 172.070312 130.585938 C 170.476562 130.585938 168.511719 130.699219 166.570312 130.546875 C 166.273438 130.546875 165.164062 130.546875 164.855469 130.574219 C 164.242188 130.632812 163.632812 130.726562 163.03125 130.855469 C 162.371094 130.976562 161.699219 131.011719 161.03125 130.964844 C 159.835938 130.929688 158.074219 130.996094 157.765625 130.785156 C 157.105469 130.648438 156.4375 130.550781 155.765625 130.496094 C 155.554688 130.464844 155.441406 130.414062 155.539062 130.378906 C 155.75 130.304688 156.125 130.230469 156.300781 130.191406 C 158.539062 130.136719 160.609375 130.101562 162.59375 130.035156 C 163.925781 129.996094 165.011719 129.914062 166.644531 129.953125 C 167.769531 129.984375 169.109375 129.953125 170.171875 129.953125 C 170.5 130.066406 170.75 130.171875 171.070312 130.28125 Z M 128.070312 131.824219 L 127.664062 131.960938 L 128.070312 131.929688 L 134.691406 132.5 L 134.453125 132.554688 C 133.75 132.554688 133.039062 132.554688 132.351562 132.554688 C 129.738281 132.523438 127.039062 132.589844 124.515625 132.449219 C 122.140625 132.316406 121.300781 132.011719 123.199219 131.828125 C 123.503906 131.800781 124.066406 131.773438 124.460938 131.78125 C 125.640625 131.773438 126.796875 131.804688 128.074219 131.828125 Z M 219.53125 176.636719 C 217.460938 176.664062 215.335938 176.671875 213.230469 176.691406 C 211.878906 176.691406 210.351562 176.691406 209.230469 176.730469 C 205.871094 176.84375 202.460938 176.933594 198.636719 176.953125 C 197.804688 176.953125 196.980469 176.980469 196.191406 177 L 192.398438 177.105469 C 192.738281 176.878906 191.984375 176.824219 189.328125 176.828125 C 187.984375 176.828125 186.644531 176.828125 185.328125 176.828125 L 172.261719 176.785156 C 172.230469 176.785156 172.21875 176.785156 172.195312 176.753906 L 172.859375 176.753906 L 189.234375 176.679688 C 189.65625 176.679688 190.09375 176.726562 190.550781 176.726562 C 191.863281 176.726562 193.191406 176.726562 194.511719 176.726562 C 194.394531 176.664062 194.476562 176.605469 194.125 176.554688 C 193.214844 176.421875 192.125 176.289062 191.039062 176.148438 C 192.175781 176.011719 193.320312 176.011719 194.453125 176.148438 C 194.65625 176.148438 195.179688 176.183594 195.589844 176.191406 C 197.691406 176.21875 201.410156 176.089844 202.386719 175.964844 C 202.761719 175.914062 203.140625 175.882812 203.519531 175.875 C 205.453125 175.875 207.410156 175.875 209.351562 175.875 C 212.851562 175.875 215.488281 175.679688 214.574219 175.453125 C 213.945312 175.300781 216.039062 174.980469 217.828125 174.953125 C 221.265625 174.921875 222 174.769531 222.210938 174.625 C 222.289062 174.570312 221.863281 174.503906 222.238281 174.464844 C 223.871094 174.300781 222.96875 174.171875 221.238281 174.074219 L 222.714844 173.941406 C 221.886719 173.90625 221.121094 173.851562 220.214844 173.835938 C 219.308594 173.820312 217.859375 173.835938 217.289062 173.835938 C 214.738281 173.683594 211.625 173.714844 208.699219 173.703125 C 206.824219 173.703125 204.910156 173.738281 202.816406 173.765625 C 203.039062 173.550781 205.253906 173.289062 199.773438 173.265625 L 200.304688 173.023438 C 198.363281 172.984375 196.304688 172.976562 195.046875 172.898438 C 193.265625 172.800781 191.445312 172.796875 189.730469 172.84375 C 189.160156 172.871094 188.589844 172.9375 188.03125 173.050781 L 188.195312 173.105469 C 186.558594 173.070312 184.496094 173.066406 183.375 173 C 180.699219 172.835938 176.375 172.785156 172.996094 172.914062 C 172.453125 172.914062 171.675781 172.914062 170.996094 172.914062 C 167.523438 172.914062 164.046875 172.914062 160.585938 172.914062 C 157.585938 172.914062 154.625 172.980469 151.628906 172.988281 C 149.101562 172.988281 146.390625 172.988281 144.023438 172.949219 C 140.300781 172.871094 136.726562 172.839844 132.976562 172.921875 C 132.648438 172.921875 132.089844 172.921875 131.894531 172.921875 C 129.59375 172.769531 128.894531 172.980469 127.453125 173.011719 C 127.125 172.996094 126.800781 173.0625 126.5 173.199219 C 126.375 173.253906 126.835938 173.320312 126.609375 173.371094 C 126.046875 173.5 124.34375 173.636719 124.753906 173.746094 C 125.253906 173.886719 124.210938 173.945312 123.316406 174.03125 L 126.050781 174.125 C 123.230469 174.21875 124.941406 174.496094 121.496094 174.554688 L 122.648438 174.59375 L 119.871094 175.226562 L 125.601562 175.226562 C 125.601562 175.308594 125.136719 175.410156 125.691406 175.480469 C 127.160156 175.65625 130.003906 175.574219 132.066406 175.554688 C 133.773438 175.554688 135.023438 175.554688 135.785156 175.628906 C 136.546875 175.703125 137.601562 175.730469 138.925781 175.730469 C 139.59375 175.730469 140.273438 175.730469 140.925781 175.730469 C 140.925781 175.730469 140.925781 175.761719 140.925781 175.773438 L 134.835938 175.84375 C 136.15625 175.875 137.40625 175.875 138.65625 175.875 C 141.691406 175.875 144.753906 175.875 147.753906 175.875 C 150.128906 175.875 153.191406 176.101562 151.785156 176.265625 C 150.734375 176.390625 149.203125 176.496094 147.785156 176.605469 C 147.605469 176.605469 146.929688 176.605469 146.484375 176.605469 L 146.65625 176.503906 L 143.753906 176.605469 L 145.511719 176.675781 C 145.566406 176.75 145.679688 176.804688 145.636719 176.859375 C 145.5 177.015625 146.195312 177.179688 144.085938 177.304688 C 143.226562 177.355469 141.863281 177.398438 141.644531 177.460938 C 141.058594 177.550781 140.464844 177.582031 139.875 177.550781 C 138.914062 177.550781 137.566406 177.589844 137.214844 177.640625 C 136.773438 177.699219 137.175781 177.789062 137.214844 177.886719 L 136.421875 177.921875 L 140 177.921875 L 140.28125 177.808594 C 141.90625 177.839844 143.355469 177.878906 144.835938 177.886719 C 146.316406 177.890625 147.835938 177.855469 149.621094 177.835938 L 148.925781 177.90625 L 151.113281 177.941406 C 151.378906 178.046875 151.652344 178.125 151.933594 178.171875 C 152.171875 178.203125 153.164062 178.253906 153.574219 178.246094 C 156.765625 178.179688 159.703125 178.296875 162.785156 178.289062 C 163.535156 178.289062 164.378906 178.289062 165.023438 178.289062 C 168.371094 178.195312 172.078125 178.199219 175.570312 178.140625 C 179.941406 178.066406 184.335938 178.003906 188.410156 177.875 C 189.953125 177.824219 192.175781 177.804688 191.769531 177.621094 C 191.550781 177.519531 192.113281 177.515625 194.105469 177.539062 C 194.605469 177.539062 195.105469 177.539062 195.636719 177.539062 L 207.214844 177.539062 C 207.789062 177.539062 208.351562 177.574219 208.914062 177.59375 L 208.671875 177.625 L 220.113281 177.558594 C 219.710938 177.40625 220.75 177.324219 222.335938 177.308594 C 222.6875 177.121094 223.054688 176.953125 223.429688 176.808594 C 224.109375 176.675781 222.828125 176.59375 219.535156 176.640625 Z M 140.910156 174.105469 L 132 174 L 132.183594 173.941406 C 132.683594 173.941406 133.183594 173.96875 133.648438 173.96875 C 134.464844 173.96875 135.269531 173.96875 136.085938 173.96875 C 137.449219 173.96875 138.839844 173.96875 140.179688 173.96875 C 140.582031 173.988281 140.984375 174.027344 141.386719 174.085938 Z M 165.449219 176.910156 C 165 176.910156 164.25 176.910156 162.949219 176.863281 L 164.886719 176.820312 L 162.230469 176.820312 C 164.769531 176.703125 167.351562 176.691406 168.539062 176.785156 C 167.5 176.835938 166.554688 176.886719 165.453125 176.914062 Z M 155.199219 181.144531 C 156.238281 181.265625 155.960938 181.320312 153.785156 181.324219 C 150.960938 181.324219 147.945312 181.425781 145.351562 181.273438 C 145.011719 181.285156 144.675781 181.242188 144.351562 181.15625 C 144.96875 180.933594 145.730469 180.71875 146.554688 180.503906 C 147.503906 180.386719 148.464844 180.351562 149.421875 180.40625 C 153.316406 180.441406 157.269531 180.464844 161.191406 180.464844 C 164.75 180.464844 168.160156 180.738281 166.765625 180.964844 C 166.628906 180.964844 166.265625 181.003906 165.925781 181.015625 L 159.464844 181.214844 C 158.875 181.160156 158.261719 181.085938 157.335938 181.03125 C 156.910156 181.03125 155.894531 181.03125 155.144531 181.03125 C 155.148438 181.058594 154.894531 181.113281 155.203125 181.148438 Z M 192.421875 179.144531 C 192.839844 179.246094 193.339844 179.339844 193.863281 179.453125 C 191.609375 179.453125 188.820312 179.570312 186.050781 179.414062 C 185.636719 179.414062 184.050781 179.414062 183.625 179.445312 C 182.554688 179.53125 181.625 179.625 181.039062 179.726562 C 180.101562 179.847656 179.15625 179.882812 178.210938 179.835938 C 176.515625 179.800781 174.023438 179.863281 173.589844 179.65625 C 173.378906 179.550781 171.679688 179.464844 170.761719 179.363281 C 170.464844 179.335938 170.300781 179.285156 170.441406 179.25 C 170.734375 179.175781 171.269531 179.101562 171.519531 179.058594 C 174.695312 179.003906 177.625 178.96875 180.441406 178.90625 C 182.320312 178.863281 183.859375 178.785156 186.175781 178.824219 C 187.769531 178.855469 189.675781 178.824219 191.175781 178.824219 C 191.585938 178.921875 191.96875 179.03125 192.425781 179.136719 Z M 131.5 180.683594 L 130.925781 180.820312 L 131.5 180.789062 L 140.871094 181.34375 L 140.539062 181.398438 C 139.539062 181.398438 138.539062 181.398438 137.539062 181.398438 C 133.84375 181.371094 130.015625 181.433594 126.441406 181.296875 C 123.078125 181.160156 121.890625 180.855469 124.578125 180.675781 C 125.011719 180.644531 125.804688 180.621094 126.371094 180.625 C 128.066406 180.628906 129.699219 180.660156 131.5 180.683594 Z M 190.191406 201.066406 C 188.730469 201.09375 187.226562 201.101562 185.746094 201.121094 C 184.796875 201.121094 183.714844 201.121094 182.914062 201.160156 C 180.539062 201.273438 178.136719 201.363281 175.414062 201.386719 C 174.828125 201.386719 174.246094 201.410156 173.691406 201.429688 L 171.015625 201.535156 C 171.253906 201.308594 170.71875 201.253906 168.851562 201.261719 C 167.898438 201.261719 166.953125 201.261719 166.011719 201.261719 L 156.785156 201.214844 C 156.785156 201.214844 156.753906 201.214844 156.738281 201.183594 L 157.210938 201.183594 L 168.769531 201.109375 C 169.066406 201.109375 169.378906 201.15625 169.699219 201.15625 C 170.625 201.15625 171.558594 201.15625 172.496094 201.15625 C 172.414062 201.09375 172.46875 201.035156 172.226562 200.984375 C 171.585938 200.851562 170.816406 200.71875 170.050781 200.578125 C 170.847656 200.441406 171.664062 200.441406 172.460938 200.578125 C 172.605469 200.578125 172.960938 200.613281 173.265625 200.621094 C 174.867188 200.644531 176.46875 200.566406 178.058594 200.394531 C 178.324219 200.34375 178.589844 200.3125 178.859375 200.304688 C 180.226562 200.304688 181.605469 200.304688 182.976562 200.304688 C 185.445312 200.304688 187.308594 200.109375 186.664062 199.886719 C 186.21875 199.730469 187.699219 199.410156 188.964844 199.386719 C 191.390625 199.351562 191.90625 199.199219 192.054688 199.054688 C 192.109375 199 191.816406 198.933594 192.054688 198.894531 C 193.203125 198.730469 192.554688 198.601562 191.335938 198.503906 L 192.375 198.371094 C 191.789062 198.335938 191.25 198.28125 190.601562 198.265625 C 189.949219 198.25 188.941406 198.265625 188.535156 198.265625 C 186.734375 198.113281 184.535156 198.144531 182.46875 198.136719 C 181.144531 198.136719 179.796875 198.171875 178.316406 198.195312 C 178.476562 197.980469 180.035156 197.71875 176.171875 197.695312 L 176.546875 197.453125 C 175.175781 197.414062 173.71875 197.40625 172.828125 197.328125 C 171.582031 197.238281 170.328125 197.21875 169.074219 197.273438 C 168.667969 197.300781 168.265625 197.371094 167.875 197.480469 L 167.988281 197.535156 C 166.835938 197.5 165.378906 197.496094 164.589844 197.429688 C 162.152344 197.25 159.703125 197.222656 157.261719 197.34375 C 156.875 197.34375 156.328125 197.34375 155.855469 197.34375 C 153.40625 197.34375 150.949219 197.34375 148.511719 197.34375 C 146.394531 197.34375 144.304688 197.410156 142.191406 197.421875 C 140.40625 197.421875 138.488281 197.421875 136.820312 197.378906 C 134.191406 197.300781 131.664062 197.269531 129.019531 197.351562 C 128.789062 197.351562 128.394531 197.351562 128.253906 197.351562 C 126.636719 197.199219 126.148438 197.410156 125.121094 197.441406 C 124.878906 197.429688 124.644531 197.496094 124.445312 197.628906 C 124.355469 197.683594 124.683594 197.75 124.519531 197.800781 C 124.125 197.929688 122.921875 198.066406 123.210938 198.175781 C 123.578125 198.316406 122.824219 198.375 122.210938 198.460938 L 124.140625 198.554688 C 122.140625 198.648438 123.355469 198.925781 120.925781 198.984375 L 121.738281 199.023438 L 119.773438 199.65625 L 123.855469 199.65625 C 123.855469 199.738281 123.53125 199.839844 123.921875 199.910156 C 125.417969 200.035156 126.921875 200.0625 128.421875 199.984375 C 129.296875 199.953125 130.171875 199.976562 131.046875 200.058594 C 131.78125 200.144531 132.523438 200.179688 133.265625 200.160156 C 133.738281 200.160156 134.214844 200.160156 134.695312 200.160156 C 134.695312 200.160156 134.695312 200.191406 134.695312 200.203125 L 130.394531 200.273438 C 131.324219 200.304688 132.210938 200.304688 133.089844 200.304688 C 135.234375 200.304688 137.394531 200.304688 139.515625 200.304688 C 141.191406 200.304688 143.351562 200.53125 142.359375 200.695312 C 141.613281 200.820312 140.539062 200.925781 139.550781 201.035156 C 139.425781 201.035156 138.945312 201.035156 138.628906 201.035156 L 138.75 200.933594 L 136.699219 201.035156 L 137.933594 201.105469 C 137.976562 201.179688 138.054688 201.234375 138.023438 201.289062 C 137.929688 201.445312 138.421875 201.609375 136.929688 201.734375 C 136.324219 201.785156 135.359375 201.828125 135.210938 201.890625 C 134.800781 201.980469 134.378906 202.011719 133.960938 201.980469 C 133.332031 201.976562 132.703125 202.007812 132.078125 202.070312 C 131.769531 202.128906 132.050781 202.21875 132.078125 202.316406 L 131.519531 202.351562 L 134.046875 202.351562 L 134.238281 202.238281 C 135.390625 202.269531 136.410156 202.308594 137.453125 202.316406 C 138.5 202.320312 139.574219 202.285156 140.828125 202.265625 L 140.328125 202.335938 L 141.875 202.371094 C 142.054688 202.472656 142.25 202.550781 142.453125 202.601562 C 142.839844 202.652344 143.226562 202.675781 143.613281 202.675781 C 145.863281 202.609375 147.941406 202.726562 150.113281 202.71875 C 150.644531 202.71875 151.238281 202.71875 151.695312 202.71875 C 154.054688 202.625 156.695312 202.628906 159.140625 202.570312 C 162.226562 202.496094 165.324219 202.433594 168.203125 202.304688 C 169.296875 202.253906 170.863281 202.234375 170.574219 202.050781 C 170.421875 201.949219 170.820312 201.945312 172.226562 201.96875 C 172.570312 201.96875 172.945312 201.96875 173.304688 201.96875 L 181.480469 201.96875 C 181.886719 201.96875 182.28125 202.003906 182.679688 202.023438 L 182.511719 202.054688 L 190.589844 201.988281 C 190.304688 201.835938 191.039062 201.753906 192.160156 201.738281 C 192.40625 201.554688 192.664062 201.386719 192.933594 201.238281 C 193.433594 201.101562 192.535156 201 190.203125 201.070312 Z M 134.691406 198.535156 L 128.378906 198.445312 L 128.511719 198.386719 C 128.855469 198.386719 129.199219 198.414062 129.546875 198.414062 C 130.121094 198.414062 130.683594 198.414062 131.265625 198.414062 C 132.230469 198.414062 133.210938 198.414062 134.15625 198.414062 C 134.441406 198.433594 134.726562 198.472656 135.003906 198.53125 Z M 152.011719 201.339844 C 151.691406 201.339844 151.164062 201.339844 150.246094 201.296875 L 151.609375 201.25 L 149.738281 201.25 C 151.222656 201.132812 152.710938 201.121094 154.195312 201.214844 C 153.5 201.261719 152.808594 201.316406 152.03125 201.34375 Z M 152.933594 205.378906 C 152.738281 205.40625 152.539062 205.425781 152.339844 205.429688 L 147.78125 205.628906 C 147.363281 205.574219 146.929688 205.5 146.28125 205.445312 C 145.980469 205.445312 145.28125 205.445312 144.734375 205.445312 C 144.734375 205.496094 144.554688 205.550781 144.773438 205.585938 C 145.511719 205.703125 145.308594 205.761719 143.773438 205.765625 C 141.773438 205.765625 139.65625 205.863281 137.820312 205.714844 C 137.453125 205.683594 137.03125 205.628906 137.101562 205.59375 C 137.609375 205.351562 138.128906 205.132812 138.660156 204.945312 C 139.320312 204.828125 139.992188 204.792969 140.660156 204.84375 C 143.410156 204.878906 146.199219 204.90625 148.96875 204.90625 C 151.53125 204.890625 153.941406 205.164062 152.953125 205.378906 Z M 171.050781 203.558594 C 171.351562 203.660156 171.699219 203.753906 172.050781 203.871094 C 170.453125 203.871094 168.488281 203.984375 166.550781 203.828125 C 166.253906 203.828125 165.144531 203.828125 164.835938 203.859375 C 164.222656 203.917969 163.613281 204.011719 163.011719 204.140625 C 162.351562 204.261719 161.679688 204.296875 161.011719 204.25 C 159.816406 204.214844 158.054688 204.28125 157.746094 204.070312 C 157.085938 203.933594 156.417969 203.835938 155.746094 203.78125 C 155.535156 203.75 155.421875 203.699219 155.519531 203.664062 C 155.730469 203.589844 156.105469 203.515625 156.28125 203.476562 C 158.519531 203.421875 160.589844 203.386719 162.574219 203.320312 C 163.90625 203.28125 164.988281 203.199219 166.625 203.238281 C 167.75 203.269531 169.089844 203.238281 170.148438 203.238281 C 170.5 203.351562 170.75 203.453125 171.070312 203.566406 Z M 128.050781 205.214844 L 134.664062 205.769531 L 134.429688 205.824219 C 133.726562 205.824219 133.015625 205.824219 132.324219 205.824219 C 129.714844 205.796875 127.015625 205.859375 124.488281 205.71875 C 122.113281 205.585938 121.273438 205.28125 123.175781 205.101562 C 123.480469 205.070312 124.039062 205.046875 124.433594 205.050781 C 125.609375 205.050781 126.765625 205.09375 128.050781 205.121094 L 127.644531 205.253906 Z M 128.050781 205.214844 "/>
</g>
</svg>
