<?xml version="1.0" encoding="UTF-8"?>
<svg xmlns="http://www.w3.org/2000/svg" xmlns:xlink="http://www.w3.org/1999/xlink" width="256pt" height="256pt" viewBox="0 0 256 256" version="1.1">
<g id="surface1">
<path style=" stroke:none;fill-rule:nonzero;fill:rgb(50.196078%,81.960784%,97.647059%);fill-opacity:1;" d="M 6.398438 64 L 6.398438 32 C 6.417969 17.867188 17.867188 6.417969 32 6.398438 L 224 6.398438 C 238.132812 6.417969 249.582031 17.867188 249.601562 32 L 249.601562 64 Z M 6.398438 64 "/>
<path style=" stroke:none;fill-rule:nonzero;fill:rgb(100%,100%,100%);fill-opacity:1;" d="M 32 249.601562 C 17.867188 249.582031 6.417969 238.132812 6.398438 224 L 6.398438 64 L 249.601562 64 L 249.601562 224 C 249.582031 238.132812 238.132812 249.582031 224 249.601562 Z M 32 249.601562 "/>
<path style=" stroke:none;fill-rule:nonzero;fill:rgb(95.686275%,47.058824%,47.058824%);fill-opacity:1;" d="M 48 96 L 80 96 C 85.300781 96 89.601562 100.296875 89.601562 105.601562 L 89.601562 131.199219 C 89.601562 136.5 85.300781 140.800781 80 140.800781 L 48 140.800781 C 42.699219 140.800781 38.398438 136.5 38.398438 131.199219 L 38.398438 105.601562 C 38.398438 100.296875 42.699219 96 48 96 Z M 48 96 "/>
<path style=" stroke:none;fill-rule:nonzero;fill:rgb(95.686275%,47.058824%,47.058824%);fill-opacity:1;" d="M 48 172.800781 L 80 172.800781 C 85.300781 172.800781 89.601562 177.097656 89.601562 182.398438 L 89.601562 208 C 89.601562 213.300781 85.300781 217.601562 80 217.601562 L 48 217.601562 C 42.699219 217.601562 38.398438 213.300781 38.398438 208 L 38.398438 182.398438 C 38.398438 177.097656 42.699219 172.800781 48 172.800781 Z M 48 172.800781 "/>
<path style=" stroke:none;fill-rule:nonzero;fill:rgb(7.843137%,12.156863%,21.960784%);fill-opacity:1;" d="M 256 32 C 256 14.328125 241.671875 0 224 0 L 32 0 C 14.328125 0 0 14.328125 0 32 L 0 224 C 0 241.671875 14.328125 256 32 256 L 224 256 C 241.671875 256 256 241.671875 256 224 Z M 243.199219 224 C 243.1875 234.597656 234.597656 243.1875 224 243.199219 L 32 243.199219 C 21.402344 243.1875 12.8125 234.597656 12.800781 224 L 12.800781 70.398438 L 243.199219 70.398438 Z M 12.800781 57.601562 L 12.800781 32 C 12.8125 21.402344 21.402344 12.8125 32 12.800781 L 224 12.800781 C 234.597656 12.8125 243.1875 21.402344 243.199219 32 L 243.199219 57.601562 Z M 12.800781 57.601562 "/>
<path style=" stroke:none;fill-rule:nonzero;fill:rgb(7.843137%,12.156863%,21.960784%);fill-opacity:1;" d="M 44.800781 35.199219 C 44.800781 40.5 40.5 44.800781 35.199219 44.800781 C 29.898438 44.800781 25.601562 40.5 25.601562 35.199219 C 25.601562 29.898438 29.898438 25.601562 35.199219 25.601562 C 40.5 25.601562 44.800781 29.898438 44.800781 35.199219 Z M 44.800781 35.199219 "/>
<path style=" stroke:none;fill-rule:nonzero;fill:rgb(7.843137%,12.156863%,21.960784%);fill-opacity:1;" d="M 70.398438 35.199219 C 70.398438 40.5 66.101562 44.800781 60.800781 44.800781 C 55.5 44.800781 51.199219 40.5 51.199219 35.199219 C 51.199219 29.898438 55.5 25.601562 60.800781 25.601562 C 66.101562 25.601562 70.398438 29.898438 70.398438 35.199219 Z M 70.398438 35.199219 "/>
<path style=" stroke:none;fill-rule:nonzero;fill:rgb(7.843137%,12.156863%,21.960784%);fill-opacity:1;" d="M 96 35.199219 C 96 40.5 91.703125 44.800781 86.398438 44.800781 C 81.097656 44.800781 76.800781 40.5 76.800781 35.199219 C 76.800781 29.898438 81.097656 25.601562 86.398438 25.601562 C 91.703125 25.601562 96 29.898438 96 35.199219 Z M 96 35.199219 "/>
<path style=" stroke:none;fill-rule:nonzero;fill:rgb(7.843137%,12.156863%,21.960784%);fill-opacity:1;" d="M 48 147.199219 L 80 147.199219 C 88.835938 147.199219 96 140.035156 96 131.199219 L 96 105.601562 C 96 96.761719 88.835938 89.601562 80 89.601562 L 48 89.601562 C 39.164062 89.601562 32 96.761719 32 105.601562 L 32 131.199219 C 32 140.035156 39.164062 147.199219 48 147.199219 Z M 44.800781 105.601562 C 44.804688 103.832031 46.234375 102.402344 48 102.398438 L 80 102.398438 C 81.765625 102.402344 83.195312 103.832031 83.199219 105.601562 L 83.199219 131.199219 C 83.195312 132.964844 81.765625 134.398438 80 134.398438 L 48 134.398438 C 46.234375 134.398438 44.804688 132.964844 44.800781 131.199219 Z M 44.800781 105.601562 "/>
<path style=" stroke:none;fill-rule:nonzero;fill:rgb(7.843137%,12.156863%,21.960784%);fill-opacity:1;" d="M 121.601562 108.800781 L 217.601562 108.800781 C 221.132812 108.800781 224 105.933594 224 102.398438 C 224 98.867188 221.132812 96 217.601562 96 L 121.601562 96 C 118.066406 96 115.199219 98.867188 115.199219 102.398438 C 115.199219 105.933594 118.066406 108.800781 121.601562 108.800781 Z M 121.601562 108.800781 "/>
<path style=" stroke:none;fill-rule:nonzero;fill:rgb(7.843137%,12.156863%,21.960784%);fill-opacity:1;" d="M 121.601562 134.398438 L 185.601562 134.398438 C 189.132812 134.398438 192 131.535156 192 128 C 192 124.464844 189.132812 121.601562 185.601562 121.601562 L 121.601562 121.601562 C 118.066406 121.601562 115.199219 124.464844 115.199219 128 C 115.199219 131.535156 118.066406 134.398438 121.601562 134.398438 Z M 121.601562 134.398438 "/>
<path style=" stroke:none;fill-rule:nonzero;fill:rgb(7.843137%,12.156863%,21.960784%);fill-opacity:1;" d="M 48 224 L 80 224 C 88.835938 224 96 216.835938 96 208 L 96 182.398438 C 96 173.5625 88.835938 166.398438 80 166.398438 L 48 166.398438 C 39.164062 166.398438 32 173.5625 32 182.398438 L 32 208 C 32 216.835938 39.164062 224 48 224 Z M 44.800781 182.398438 C 44.804688 180.632812 46.234375 179.203125 48 179.199219 L 80 179.199219 C 81.765625 179.203125 83.195312 180.632812 83.199219 182.398438 L 83.199219 208 C 83.195312 209.765625 81.765625 211.195312 80 211.199219 L 48 211.199219 C 46.234375 211.195312 44.804688 209.765625 44.800781 208 Z M 44.800781 182.398438 "/>
<path style=" stroke:none;fill-rule:nonzero;fill:rgb(7.843137%,12.156863%,21.960784%);fill-opacity:1;" d="M 121.601562 185.601562 L 217.601562 185.601562 C 221.132812 185.601562 224 182.734375 224 179.199219 C 224 175.664062 221.132812 172.800781 217.601562 172.800781 L 121.601562 172.800781 C 118.066406 172.800781 115.199219 175.664062 115.199219 179.199219 C 115.199219 182.734375 118.066406 185.601562 121.601562 185.601562 Z M 121.601562 185.601562 "/>
<path style=" stroke:none;fill-rule:nonzero;fill:rgb(7.843137%,12.156863%,21.960784%);fill-opacity:1;" d="M 121.601562 211.199219 L 185.601562 211.199219 C 189.132812 211.199219 192 208.335938 192 204.800781 C 192 201.265625 189.132812 198.398438 185.601562 198.398438 L 121.601562 198.398438 C 118.066406 198.398438 115.199219 201.265625 115.199219 204.800781 C 115.199219 208.335938 118.066406 211.199219 121.601562 211.199219 Z M 121.601562 211.199219 "/>
</g>
</svg>
