<?xml version="1.0" encoding="UTF-8"?>
<svg xmlns="http://www.w3.org/2000/svg" xmlns:xlink="http://www.w3.org/1999/xlink" width="256pt" height="256pt" viewBox="0 0 256 256" version="1.1">
<g id="surface1">
<path style=" stroke:none;fill-rule:nonzero;fill:rgb(14.901961%,63.921569%,96.862745%);fill-opacity:1;" d="M 0 57.601562 L 0 32 C 0 14.328125 14.328125 0 32 0 L 224 0 C 241.671875 0 256 14.328125 256 32 L 256 57.601562 Z M 0 57.601562 "/>
<path style=" stroke:none;fill-rule:nonzero;fill:rgb(86.666667%,89.803922%,90.980392%);fill-opacity:1;" d="M 256 57.601562 L 256 224 C 256 241.671875 241.671875 256 224 256 L 32 256 C 14.328125 256 0 241.671875 0 224 L 0 57.601562 Z M 256 57.601562 "/>
<path style=" stroke:none;fill-rule:nonzero;fill:rgb(11.372549%,52.156863%,69.803922%);fill-opacity:1;" d="M 44.800781 28.800781 C 44.800781 34.101562 40.5 38.398438 35.199219 38.398438 C 29.898438 38.398438 25.601562 34.101562 25.601562 28.800781 C 25.601562 23.5 29.898438 19.199219 35.199219 19.199219 C 40.5 19.199219 44.800781 23.5 44.800781 28.800781 Z M 44.800781 28.800781 "/>
<path style=" stroke:none;fill-rule:nonzero;fill:rgb(11.372549%,52.156863%,69.803922%);fill-opacity:1;" d="M 70.398438 28.800781 C 70.398438 34.101562 66.101562 38.398438 60.800781 38.398438 C 55.5 38.398438 51.199219 34.101562 51.199219 28.800781 C 51.199219 23.5 55.5 19.199219 60.800781 19.199219 C 66.101562 19.199219 70.398438 23.5 70.398438 28.800781 Z M 70.398438 28.800781 "/>
<path style=" stroke:none;fill-rule:nonzero;fill:rgb(11.372549%,52.156863%,69.803922%);fill-opacity:1;" d="M 96 28.800781 C 96 34.101562 91.703125 38.398438 86.398438 38.398438 C 81.097656 38.398438 76.800781 34.101562 76.800781 28.800781 C 76.800781 23.5 81.097656 19.199219 86.398438 19.199219 C 91.703125 19.199219 96 23.5 96 28.800781 Z M 96 28.800781 "/>
<path style=" stroke:none;fill-rule:nonzero;fill:rgb(95.686275%,47.058824%,47.058824%);fill-opacity:1;" d="M 48 89.601562 L 80 89.601562 C 88.835938 89.601562 96 96.761719 96 105.601562 L 96 131.199219 C 96 140.035156 88.835938 147.199219 80 147.199219 L 48 147.199219 C 39.164062 147.199219 32 140.035156 32 131.199219 L 32 105.601562 C 32 96.761719 39.164062 89.601562 48 89.601562 Z M 48 89.601562 "/>
<path style=" stroke:none;fill-rule:nonzero;fill:rgb(68.627451%,76.470588%,78.823529%);fill-opacity:1;" d="M 224 102.398438 C 224 105.933594 221.132812 108.800781 217.601562 108.800781 L 121.601562 108.800781 C 118.066406 108.800781 115.199219 105.933594 115.199219 102.398438 C 115.199219 98.867188 118.066406 96 121.601562 96 L 217.601562 96 C 221.132812 96 224 98.867188 224 102.398438 Z M 224 102.398438 "/>
<path style=" stroke:none;fill-rule:nonzero;fill:rgb(68.627451%,76.470588%,78.823529%);fill-opacity:1;" d="M 192 128 C 192 131.535156 189.132812 134.398438 185.601562 134.398438 L 121.601562 134.398438 C 118.066406 134.398438 115.199219 131.535156 115.199219 128 C 115.199219 124.464844 118.066406 121.601562 121.601562 121.601562 L 185.601562 121.601562 C 189.132812 121.601562 192 124.464844 192 128 Z M 192 128 "/>
<path style=" stroke:none;fill-rule:nonzero;fill:rgb(95.686275%,47.058824%,47.058824%);fill-opacity:1;" d="M 48 166.398438 L 80 166.398438 C 88.835938 166.398438 96 173.5625 96 182.398438 L 96 208 C 96 216.835938 88.835938 224 80 224 L 48 224 C 39.164062 224 32 216.835938 32 208 L 32 182.398438 C 32 173.5625 39.164062 166.398438 48 166.398438 Z M 48 166.398438 "/>
<path style=" stroke:none;fill-rule:nonzero;fill:rgb(68.627451%,76.470588%,78.823529%);fill-opacity:1;" d="M 224 179.199219 C 224 182.734375 221.132812 185.601562 217.601562 185.601562 L 121.601562 185.601562 C 118.066406 185.601562 115.199219 182.734375 115.199219 179.199219 C 115.199219 175.664062 118.066406 172.800781 121.601562 172.800781 L 217.601562 172.800781 C 221.132812 172.800781 224 175.664062 224 179.199219 Z M 224 179.199219 "/>
<path style=" stroke:none;fill-rule:nonzero;fill:rgb(68.627451%,76.470588%,78.823529%);fill-opacity:1;" d="M 192 204.800781 C 192 208.335938 189.132812 211.199219 185.601562 211.199219 L 121.601562 211.199219 C 118.066406 211.199219 115.199219 208.335938 115.199219 204.800781 C 115.199219 201.265625 118.066406 198.398438 121.601562 198.398438 L 185.601562 198.398438 C 189.132812 198.398438 192 201.265625 192 204.800781 Z M 192 204.800781 "/>
</g>
</svg>
