<?xml version="1.0" standalone="no"?>
<!DOCTYPE svg PUBLIC "-//W3C//DTD SVG 20010904//EN"
 "http://www.w3.org/TR/2001/REC-SVG-20010904/DTD/svg10.dtd">
<svg version="1.0" xmlns="http://www.w3.org/2000/svg"
 width="782.000000pt" height="782.000000pt" viewBox="0 0 782.000000 782.000000"
 preserveAspectRatio="xMidYMid meet">
<metadata>
Created by potrace 1.11, written by Peter Selinger 2001-2013
</metadata>
<g transform="translate(0.000000,782.000000) scale(0.100000,-0.100000)"
fill="#000000" stroke="none">
<path d="M505 7450 c-141 -83 -250 -179 -344 -304 -257 -339 -198 -705 149
-935 58 -39 123 -71 154 -77 10 -2 33 -8 50 -13 32 -10 61 -15 161 -28 75 -10
532 -10 763 0 94 4 172 5 172 1 0 -6 -45 -106 -64 -144 -8 -14 -21 -50 -31
-80 -10 -30 -20 -59 -24 -65 -3 -5 -6 -12 -6 -15 -1 -3 -11 -36 -24 -75 -13
-38 -25 -77 -26 -85 -58 -250 -62 -270 -71 -355 -4 -33 -8 -63 -10 -66 -6 -11
-17 -226 -17 -329 0 -82 10 -262 17 -325 7 -53 18 -124 26 -165 6 -25 12 -59
15 -76 4 -25 20 -90 59 -234 21 -75 80 -234 125 -333 17 -38 31 -70 31 -71 0
-2 -179 -2 -397 -2 -350 1 -479 -3 -573 -18 -222 -36 -350 -92 -444 -195 -17
-19 -36 -39 -42 -46 -40 -40 -98 -172 -115 -259 -9 -51 -13 -206 -5 -242 2
-12 7 -37 10 -56 16 -101 89 -253 168 -352 115 -141 250 -208 461 -231 212
-23 851 -21 1212 2 44 3 1057 7 2250 9 1194 2 2397 5 2675 7 l505 2 85 42 c47
23 99 53 115 68 123 110 184 187 235 296 47 103 64 181 64 304 1 138 -6 169
-58 285 -29 65 -141 210 -163 210 -3 0 -14 6 -22 14 -54 48 -242 118 -354 132
-23 3 -48 7 -56 10 -41 13 -205 19 -553 18 l-387 0 16 30 c9 17 39 89 68 161
93 232 156 495 182 760 14 143 7 518 -11 615 -3 14 -7 47 -11 75 -3 27 -7 57
-10 65 -3 8 -7 29 -9 45 -15 118 -136 503 -185 592 -6 10 -17 33 -26 50 l-15
33 212 -6 c396 -12 582 -9 758 11 202 23 330 80 431 191 112 124 168 271 173
453 9 282 -124 536 -351 670 -29 17 -53 28 -53 25 0 -2 -10 1 -22 8 -25 13 44
13 -4283 22 l-2530 6 -50 -30z m5965 -24 c185 -5 288 -10 390 -20 74 -7 163
-17 190 -22 14 -2 43 -6 65 -9 35 -5 183 -37 225 -49 180 -51 272 -141 335
-330 73 -219 27 -473 -111 -609 -45 -46 -154 -116 -189 -123 -5 -1 -26 -9 -46
-17 -50 -22 -222 -55 -326 -64 -82 -6 -528 -8 -727 -2 -87 2 -88 2 -121 38
-46 50 -66 73 -95 111 -14 19 -49 64 -77 102 -29 38 -53 73 -53 78 0 5 -6 13
-13 17 -7 4 -21 21 -31 38 -24 36 -19 31 -110 140 -95 116 -245 255 -274 255
-6 0 -12 4 -14 8 -9 24 -216 130 -470 243 -180 80 -382 179 -376 184 4 4 444
17 610 19 65 0 118 3 118 6 0 3 134 7 298 8 163 2 298 5 299 5 2 3 284 -1 503
-7z m-4071 -7 c56 15 1089 3 1291 -14 30 -3 87 -7 125 -10 39 -4 84 -8 100
-10 17 -2 59 -6 95 -10 36 -3 72 -8 80 -10 8 -2 38 -7 65 -11 28 -3 59 -8 70
-10 11 -2 47 -9 80 -15 274 -49 576 -148 795 -262 123 -64 130 -68 167 -94 17
-13 34 -23 38 -23 7 0 71 -46 93 -67 7 -7 17 -13 21 -13 4 0 16 -8 27 -17 11
-10 49 -42 84 -72 75 -63 241 -229 285 -286 17 -21 35 -43 40 -49 80 -89 269
-387 327 -516 63 -140 63 -139 105 -250 13 -36 26 -74 28 -84 3 -11 11 -40 19
-65 34 -113 58 -221 72 -321 3 -25 8 -54 10 -65 15 -80 20 -315 10 -450 -8
-94 -45 -310 -62 -355 -3 -8 -8 -25 -10 -36 -7 -39 -75 -243 -89 -271 -8 -15
-15 -32 -15 -36 0 -14 -75 -182 -82 -185 -5 -2 -8 -9 -8 -15 0 -7 -12 -38 -27
-69 l-27 -58 -843 0 c-464 0 -843 4 -843 8 0 4 24 16 53 26 176 62 361 201
484 366 112 150 204 379 228 570 4 29 9 62 11 74 6 28 6 254 0 286 -2 14 -7
51 -11 82 -24 221 -146 502 -294 678 -55 66 -139 150 -150 150 -4 0 -16 9 -26
20 -74 82 -310 170 -548 205 -23 4 -64 11 -90 16 -26 5 -51 8 -55 7 -4 -1 -25
1 -47 5 -51 9 -109 15 -210 22 -44 3 -102 8 -130 10 -333 26 -1168 26 -2085
-1 -296 -8 -460 -11 -460 -6 0 2 24 32 53 65 149 172 231 318 252 452 31 190
-33 360 -225 595 -19 24 -45 52 -57 63 -13 11 -23 24 -23 28 0 4 66 8 148 9
556 6 1093 18 1099 24 3 3 13 2 21 -3 8 -5 27 -6 41 -2z m-1630 -37 c6 2 60
-12 151 -39 277 -82 426 -340 376 -650 -24 -148 -132 -324 -252 -409 -38 -27
-134 -76 -134 -69 0 4 -6 3 -12 -2 -16 -9 -21 -11 -83 -22 -50 -9 -187 -7
-203 3 -5 3 -23 8 -41 11 -17 3 -59 19 -92 35 -162 78 -277 216 -334 400 -25
80 -28 239 -6 320 50 189 193 338 361 375 18 4 104 30 150 44 38 12 64 15 84
10 15 -5 31 -8 35 -7z m1566 -1283 c6 -1 15 0 20 1 8 2 1021 2 1048 1 17 -2 5
-19 -16 -25 -13 -3 -45 -15 -73 -28 -27 -12 -51 -22 -54 -23 -9 0 -105 -58
-140 -84 -19 -14 -39 -29 -45 -33 -85 -61 -225 -226 -268 -315 -12 -24 -25
-43 -29 -43 -4 0 -8 -5 -8 -11 0 -5 -11 -34 -24 -62 -46 -103 -68 -180 -95
-332 -17 -98 -21 -362 -7 -440 4 -16 8 -43 10 -60 23 -179 144 -454 271 -615
40 -50 171 -177 220 -212 93 -66 238 -126 375 -153 8 -2 26 -6 40 -9 27 -6 52
-11 150 -26 106 -18 113 -18 165 -24 28 -3 75 -8 105 -12 30 -3 84 -7 120 -9
36 -2 65 -5 65 -5 0 -2 68 -6 280 -16 227 -10 960 -10 1335 0 382 11 580 15
792 20 l177 3 -43 -51 c-51 -60 -142 -199 -180 -274 -27 -53 -80 -202 -91
-257 -4 -16 -8 -73 -9 -126 -6 -198 77 -340 263 -452 30 -17 54 -36 53 -42 -1
-6 -47 -11 -109 -11 -177 -3 -756 -13 -1083 -20 -655 -14 -1264 -6 -1510 21
-30 3 -84 8 -119 11 -70 5 -249 30 -351 49 -14 3 -43 8 -65 11 -22 3 -43 8
-46 10 -4 2 -23 6 -44 10 -29 4 -141 34 -290 77 -37 11 -93 30 -110 37 -11 5
-56 23 -100 41 -99 40 -287 135 -349 178 -26 17 -49 31 -52 31 -3 0 -10 5 -17
10 -7 6 -41 32 -77 58 -36 25 -67 49 -70 52 -3 3 -38 33 -77 68 -163 142 -298
297 -431 494 -29 42 -52 81 -52 87 0 5 -4 11 -8 13 -24 9 -227 424 -236 481
-1 7 -4 17 -8 22 -6 10 -67 214 -73 245 -30 147 -47 247 -53 300 -14 140 -6
507 13 562 2 7 7 29 10 48 3 19 7 44 9 55 12 72 98 359 126 420 5 11 21 49 35
85 15 36 38 90 52 120 14 30 35 76 47 102 17 38 26 47 51 50 30 3 561 1 580
-3z m1676 -19 c276 -57 471 -130 632 -237 90 -59 217 -187 278 -278 66 -100
161 -305 175 -380 1 -5 7 -29 13 -51 34 -127 35 -360 1 -509 -68 -302 -275
-580 -565 -763 -120 -75 -312 -148 -455 -172 -36 -6 -76 -13 -90 -16 -31 -5
-208 -6 -235 -1 -11 3 -42 8 -68 11 -45 7 -68 11 -107 21 -8 2 -15 4 -15 5 0
1 -7 3 -15 5 -9 1 -52 17 -95 34 -319 127 -587 415 -699 753 -45 134 -60 233
-60 388 0 147 15 250 51 345 8 22 15 42 15 45 1 7 8 28 23 65 7 17 13 33 13
38 1 4 20 42 43 85 130 240 256 355 489 445 54 21 129 47 150 52 3 1 12 4 20
7 21 8 122 39 140 43 8 2 67 22 130 44 63 22 120 40 126 41 7 0 54 -9 105 -20z
m-2285 -2576 c44 -48 84 -91 89 -98 6 -6 62 -72 125 -146 63 -74 130 -153 150
-174 95 -107 156 -173 175 -189 11 -10 45 -42 75 -70 162 -153 388 -299 537
-347 21 -7 43 -16 48 -20 11 -8 126 -40 165 -46 14 -3 39 -8 55 -13 29 -9 29
-9 5 -11 -35 -2 -305 -9 -580 -15 -129 -2 -284 -7 -345 -9 -358 -16 -520 -20
-875 -20 -217 0 -426 2 -465 6 -133 13 -220 24 -260 32 -72 15 -118 27 -133
35 -9 5 -37 18 -62 30 -67 32 -200 165 -200 199 0 6 -4 12 -8 14 -14 6 -53
100 -73 175 -15 59 -27 198 -19 223 0 3 3 24 5 47 10 96 85 244 155 306 49 44
121 84 185 102 33 10 77 24 98 31 20 8 37 12 37 10 0 -2 21 4 48 14 43 18 84
19 518 20 l472 0 78 -86z m5447 70 c15 -2 36 -8 47 -14 11 -6 23 -9 27 -9 4 1
15 0 23 -3 8 -3 35 -11 59 -18 165 -45 289 -164 349 -334 46 -129 38 -304 -19
-449 -31 -78 -104 -181 -166 -235 -52 -45 -153 -108 -153 -96 0 4 -6 1 -13 -5
-23 -18 -140 -38 -213 -36 -253 8 -469 172 -555 422 -31 91 -43 230 -27 318
26 141 130 295 241 357 39 22 78 36 277 97 36 11 72 17 80 14 8 -3 28 -7 43
-9z"/>
<path d="M3989 1220 c-4 -3 -7 -161 -6 -350 l2 -345 45 0 45 0 1 130 c2 156
21 218 82 257 61 40 70 41 91 7 29 -48 38 -113 40 -284 l1 -111 45 -1 c25 -1
47 2 50 7 6 10 7 267 2 315 -8 62 -19 101 -35 121 -48 58 -118 72 -207 42 -32
-10 -59 -17 -62 -15 -2 3 -4 56 -4 118 l-1 114 -40 0 c-22 0 -44 -2 -49 -5z"/>
<path d="M4659 1188 c-8 -18 -14 -39 -13 -45 1 -7 2 -19 3 -26 1 -19 40 -35
71 -30 43 6 66 28 68 66 2 33 0 36 -45 51 -63 22 -67 21 -84 -16z"/>
<path d="M2928 1140 c-6 -65 -4 -67 66 -65 l63 1 0 -226 0 -226 -51 1 c-67 1
-82 -7 -80 -42 1 -15 3 -35 3 -43 1 -13 28 -15 183 -15 l182 0 6 25 c11 44 0
70 -29 71 -14 0 -42 1 -61 2 l-35 2 -3 219 c-2 150 1 222 8 226 6 4 35 6 65 5
l53 -1 4 48 c2 37 0 48 -12 49 -8 1 -92 2 -187 3 l-171 1 -4 -35z"/>
<path d="M3416 1160 c-4 -13 -2 -64 2 -81 1 -3 37 -5 80 -4 42 1 82 0 87 -2 6
-2 9 -100 8 -272 -1 -198 2 -271 10 -273 7 -3 32 -4 57 -3 l45 0 0 273 c0 235
2 272 15 273 8 1 49 2 89 3 l75 1 1 48 c0 26 -2 47 -5 48 -3 1 -107 2 -233 2
-194 2 -228 0 -231 -13z"/>
<path d="M2378 1012 c-3 -14 -2 -445 1 -478 1 -9 54 -12 91 -5 3 1 5 58 6 129
1 135 4 159 30 208 26 47 108 91 130 69 30 -29 46 -128 48 -282 1 -72 5 -124
11 -126 6 -2 26 -3 45 -3 30 1 35 5 40 31 3 17 5 71 4 120 -6 209 -29 328 -68
340 -11 4 -91 9 -177 10 -141 4 -157 2 -161 -13z"/>
<path d="M4550 985 l0 -42 60 3 c48 2 60 -1 64 -14 2 -10 4 -83 4 -163 l-1
-146 -71 1 -71 0 -3 -47 c-2 -33 1 -47 10 -48 7 -1 95 -2 195 -3 176 -1 183 0
184 19 3 33 0 67 -5 73 -3 2 -36 5 -73 6 l-68 1 1 201 0 201 -113 0 -113 0 0
-42z"/>
<path d="M5055 1022 c-3 -3 -5 -117 -5 -253 l0 -247 45 3 c25 1 48 4 50 7 5 4
15 191 19 315 0 27 7 35 53 61 83 48 93 46 114 -17 22 -62 29 -135 29 -271 l0
-95 33 1 c73 3 67 -13 63 162 -6 208 -26 311 -64 328 -20 8 -328 14 -337 6z"/>
<path d="M5750 1023 c-101 -14 -156 -90 -175 -243 -21 -161 -26 -351 -10 -373
6 -9 34 -27 61 -39 43 -20 64 -23 169 -22 66 0 132 6 147 12 56 23 99 181 59
215 -38 33 -123 53 -250 62 -56 3 -80 14 -81 35 0 9 114 49 175 61 66 13 96
29 119 64 19 28 44 119 52 188 l6 48 -123 -2 c-68 -2 -135 -4 -149 -6z m57
-85 c68 -38 73 -45 60 -82 -24 -65 -41 -79 -89 -73 -75 9 -78 13 -78 76 0 52
3 58 33 79 17 12 33 22 34 22 1 0 19 -10 40 -22z m50 -413 c19 -3 38 -15 44
-27 9 -17 7 -25 -14 -46 -23 -22 -33 -24 -111 -24 -48 0 -88 1 -91 3 -2 2 -6
20 -10 40 -10 54 9 67 87 63 35 -1 78 -6 95 -9z"/>
<path d="M1877 1003 c-2 -5 -5 -25 -5 -47 l-1 -38 42 8 c81 16 163 11 193 -12
29 -21 49 -70 34 -79 -5 -3 -28 -7 -52 -10 -24 -2 -59 -6 -78 -9 -19 -2 -56
-7 -81 -11 -40 -5 -48 -10 -63 -43 -29 -59 -34 -91 -24 -139 15 -69 127 -115
258 -106 65 4 130 10 141 12 9 2 -6 379 -17 413 -8 26 -21 40 -51 56 -24 13
-289 17 -296 5z m273 -277 c0 -16 -15 -36 -46 -62 -26 -22 -52 -43 -58 -49 -6
-5 -24 -10 -41 -10 -26 0 -31 5 -48 49 -9 27 -16 49 -15 50 2 1 16 12 32 24
23 18 42 22 102 22 71 0 74 -1 74 -24z"/>
</g>
</svg>
